<svg width="60" height="60" viewBox="0 0 60 60" fill="none" xmlns="http://www.w3.org/2000/svg">
<g style="mix-blend-mode:luminosity" clip-path="url(#clip0)">
<path d="M39.04 50.9501C39.04 55.0571 36.2692 58.5151 32.4963 59.5597C31.7359 59.7703 30.9353 59.8829 30.1086 59.8829C25.1753 59.8829 21.1758 55.8838 21.1758 50.9501L30.1228 46.3523L39.04 50.9501Z" fill="#E58E13"/>
<path d="M38.6067 53.7053C37.6871 56.5435 35.385 58.76 32.4951 59.5597C30.6783 59.0571 29.0939 57.995 27.9395 56.5709C27.0088 55.4224 27.8484 53.7053 29.3265 53.7053H38.6067Z" fill="#F7D360"/>
<path d="M53.1686 42.0186L33.9778 46.1687L7.04297 42.0186C9.15646 42.0186 10.3517 40.9131 11.0301 39.0798C14.3118 30.2294 5.57126 4.4353 30.1065 4.4353C54.6417 4.4353 45.8998 30.2294 49.1815 39.0798C49.8613 40.9131 51.056 42.0186 53.1686 42.0186Z" fill="#F7D360"/>
<path d="M57.6347 46.4845C57.6347 48.9505 55.6352 50.95 53.1693 50.95H7.04361C5.81085 50.95 4.69391 50.4506 3.88596 49.6422C3.07755 48.8342 2.57812 47.7173 2.57812 46.4845C2.57812 44.0181 4.57764 42.0186 7.04361 42.0186H53.1693C54.402 42.0186 55.519 42.5184 56.3269 43.3264C57.1353 44.1348 57.6347 45.2513 57.6347 46.4845Z" fill="#E58E13"/>
<path d="M49.1825 39.0799H25.209C22.6245 39.0799 20.5576 36.9407 20.6378 34.3571C20.9756 23.4276 19.2324 4.64322 29.9281 4.43677C0.568481 4.58875 19.3363 42.0187 7.04492 42.0187H53.1697C51.0571 42.0187 49.8623 40.9132 49.1825 39.0799Z" fill="#E58E13"/>
<path d="M57.6342 46.4845C57.6342 48.9505 55.6347 50.95 53.1687 50.95H19.9484C18.7151 50.95 17.5982 50.4506 16.7903 49.6422C15.9823 48.8342 15.4824 47.7173 15.4824 46.4845C15.4824 44.0181 17.4819 42.0186 19.9484 42.0186H53.1687C54.4015 42.0186 55.5184 42.5184 56.3264 43.3264C57.1348 44.1348 57.6342 45.2513 57.6342 46.4845Z" fill="#F7D360"/>
<path d="M34.6463 4.77722C34.6559 4.66461 34.6596 4.55063 34.6596 4.43527C34.6596 1.92169 32.6212 -0.117188 30.1071 -0.117188C27.5922 -0.117188 25.5547 1.92169 25.5547 4.43527C25.5547 4.55063 25.5583 4.66461 25.568 4.77722" fill="#E58E13"/>
<path d="M52.2785 19.5371C51.7713 19.5371 51.3602 19.1256 51.3602 18.6189C51.3602 14.3685 50.2676 10.7412 48.1129 7.8376C46.5043 5.67009 44.8687 4.73717 44.8527 4.72756C44.4114 4.47991 44.2525 3.92144 44.4988 3.47924C44.7451 3.03749 45.3008 2.87728 45.7435 3.12172C45.8217 3.16521 47.6812 4.20891 49.5228 6.65612C51.1991 8.88359 53.1972 12.7673 53.1972 18.6189C53.1972 19.1256 52.7857 19.5371 52.2785 19.5371Z" fill="#E6E6E6"/>
<path d="M56.3196 14.272C55.8124 14.272 55.4013 13.8609 55.4013 13.3537C55.4013 7.49156 51.9296 5.16109 51.7817 5.06496C51.3583 4.78893 51.2356 4.22176 51.5089 3.79695C51.7827 3.37215 52.3457 3.24672 52.7719 3.51817C52.9545 3.63399 57.2378 6.43962 57.2378 13.3537C57.2378 13.8609 56.8268 14.272 56.3196 14.272Z" fill="#E6E6E6"/>
<path d="M7.93195 19.5372C7.42474 19.5372 7.01367 19.1257 7.01367 18.6189C7.01367 12.7673 9.01181 8.88368 10.6877 6.6562C12.5297 4.209 14.3887 3.16484 14.467 3.12181C14.911 2.87645 15.4699 3.03758 15.7153 3.48161C15.9602 3.92473 15.8 4.48229 15.3578 4.7281C15.3216 4.7487 13.697 5.68391 12.0981 7.83769C9.9429 10.7413 8.85068 14.3686 8.85068 18.6189C8.85022 19.1257 8.43915 19.5372 7.93195 19.5372Z" fill="#E6E6E6"/>
<path d="M3.89288 14.2722C3.38568 14.2722 2.97461 13.8612 2.97461 13.354C2.97461 6.4399 7.25836 3.63427 7.44055 3.51845C7.86856 3.24608 8.43618 3.37243 8.70855 3.79998C8.98001 4.22661 8.8555 4.79241 8.43023 5.06524C8.2778 5.16503 4.81116 7.49642 4.81116 13.354C4.81116 13.8612 4.40008 14.2722 3.89288 14.2722Z" fill="#E6E6E6"/>
</g>
<defs>
<clipPath id="clip0">
<rect width="60" height="60" fill="white"/>
</clipPath>
</defs>
</svg>
