<svg width="28" height="27" viewBox="0 0 28 27" fill="none" xmlns="http://www.w3.org/2000/svg">
<path d="M20.666 3.00004H25.9993C26.353 3.00004 26.6921 3.14052 26.9422 3.39056C27.1922 3.64061 27.3327 3.97975 27.3327 4.33337V25.6667C27.3327 26.0203 27.1922 26.3595 26.9422 26.6095C26.6921 26.8596 26.353 27 25.9993 27H1.99935C1.64573 27 1.30659 26.8596 1.05654 26.6095C0.806491 26.3595 0.666016 26.0203 0.666016 25.6667V4.33337C0.666016 3.97975 0.806491 3.64061 1.05654 3.39056C1.30659 3.14052 1.64573 3.00004 1.99935 3.00004H7.33268V0.333374H9.99935V3.00004H17.9993V0.333374H20.666V3.00004ZM3.33268 11V24.3334H24.666V11H3.33268ZM5.99935 13.6667H8.66602V16.3334H5.99935V13.6667ZM5.99935 19H8.66602V21.6667H5.99935V19ZM11.3327 13.6667H21.9993V16.3334H11.3327V13.6667ZM11.3327 19H17.9993V21.6667H11.3327V19Z" fill="#3E64FF"/>
</svg>
