<svg width="28" height="26" viewBox="0 0 28 26" fill="none" xmlns="http://www.w3.org/2000/svg">
<path d="M20.666 22.6667H7.33268V24C7.33268 24.3536 7.19221 24.6928 6.94216 24.9428C6.69211 25.1929 6.35297 25.3333 5.99935 25.3333H3.33268C2.97906 25.3333 2.63992 25.1929 2.38987 24.9428C2.13982 24.6928 1.99935 24.3536 1.99935 24V12H0.666016V6.66667H1.99935V2.66667C1.99935 1.95942 2.2803 1.28115 2.7804 0.781048C3.28049 0.280951 3.95877 0 4.66602 0H23.3327C24.0399 0 24.7182 0.280951 25.2183 0.781048C25.7184 1.28115 25.9993 1.95942 25.9993 2.66667V6.66667H27.3327V12H25.9993V24C25.9993 24.3536 25.8589 24.6928 25.6088 24.9428C25.3588 25.1929 25.0196 25.3333 24.666 25.3333H21.9993C21.6457 25.3333 21.3066 25.1929 21.0565 24.9428C20.8065 24.6928 20.666 24.3536 20.666 24V22.6667ZM4.66602 2.66667V10.6667H23.3327V2.66667H4.66602ZM23.3327 13.3333H4.66602V20H23.3327V13.3333ZM7.99935 18.6667C7.46892 18.6667 6.96021 18.456 6.58514 18.0809C6.21006 17.7058 5.99935 17.1971 5.99935 16.6667C5.99935 16.1362 6.21006 15.6275 6.58514 15.2525C6.96021 14.8774 7.46892 14.6667 7.99935 14.6667C8.52978 14.6667 9.03849 14.8774 9.41356 15.2525C9.78864 15.6275 9.99935 16.1362 9.99935 16.6667C9.99935 17.1971 9.78864 17.7058 9.41356 18.0809C9.03849 18.456 8.52978 18.6667 7.99935 18.6667ZM19.9993 18.6667C19.4689 18.6667 18.9602 18.456 18.5851 18.0809C18.2101 17.7058 17.9993 17.1971 17.9993 16.6667C17.9993 16.1362 18.2101 15.6275 18.5851 15.2525C18.9602 14.8774 19.4689 14.6667 19.9993 14.6667C20.5298 14.6667 21.0385 14.8774 21.4136 15.2525C21.7886 15.6275 21.9993 16.1362 21.9993 16.6667C21.9993 17.1971 21.7886 17.7058 21.4136 18.0809C21.0385 18.456 20.5298 18.6667 19.9993 18.6667Z" fill="#3E64FF"/>
</svg>
