<svg width="80" height="80" viewBox="0 0 80 80" fill="none" xmlns="http://www.w3.org/2000/svg">
<g clip-path="url(#clip0)">
<path d="M0 73.8623C0 76.9922 2.53601 79.53 5.66406 79.53H74.3353C77.464 79.53 80 76.9922 80 73.8623V71.8677C80 71.5698 79.7583 71.3281 79.4611 71.3281H0.53894C0.241089 71.3281 0 71.5698 0 71.8677L0 73.8623Z" fill="#BEC8DC"/>
<path d="M79.4611 71.3281H66.4117C66.709 71.3281 66.9507 71.5698 66.9507 71.8677V73.8623C66.9507 76.9922 64.4147 79.53 61.286 79.53H74.3359C77.464 79.53 80 76.9922 80 73.8623V71.8677C80 71.5698 79.7589 71.3281 79.4611 71.3281Z" fill="#AFBBD0"/>
<path d="M43.3258 75.3809H36.6742C34.4366 75.3809 32.6227 73.5669 32.6227 71.3293V71.3287H47.3773V71.3293C47.3773 73.5669 45.5634 75.3809 43.3258 75.3809Z" fill="#95A5B9"/>
<path d="M76.3934 71.3281H3.60657V29.1345C3.60657 25.3516 6.67358 22.2845 10.4565 22.2845H69.5435C73.3264 22.2845 76.3934 25.351 76.3934 29.1345V71.3281Z" fill="#5B5C6C"/>
<path d="M69.5453 22.2845H57.0557C60.838 22.2845 63.9038 25.3522 63.9038 29.1364L9.37378 65.9259L15.5902 71.3281H76.3934V29.1364C76.3934 25.3522 73.3276 22.2845 69.5453 22.2845Z" fill="#464655"/>
<path d="M71.2817 2.40112V64.4751C71.2817 65.5432 70.4163 66.4075 69.3506 66.4075H10.6488C9.58374 66.4075 8.71826 65.5432 8.71826 64.4751V2.40112C8.71826 1.33301 9.58374 0.46875 10.6488 0.46875H69.3506C70.4163 0.46875 71.2817 1.33301 71.2817 2.40112Z" fill="#E4EAF7"/>
<path d="M71.2817 2.40112V64.4751C71.2817 65.5432 70.4163 66.4075 69.3506 66.4075H61.9739C63.0396 66.4075 63.905 65.5432 63.905 64.4751V2.40112C63.905 1.33301 63.0389 0.46875 61.9739 0.46875H69.3506C70.4163 0.46875 71.2817 1.33301 71.2817 2.40112Z" fill="#D2DCF0"/>
<path d="M71.2817 2.40112V9.8822L71.2292 9.90051H8.93433L8.71826 9.75281V2.40112C8.71826 1.33301 9.58374 0.46875 10.6488 0.46875H69.3506C70.4163 0.46875 71.2817 1.33301 71.2817 2.40112Z" fill="#FF8D95"/>
<path d="M71.2817 2.40112V9.8822L71.2292 9.90051H63.905V2.40112C63.905 1.33301 63.0389 0.46875 61.9739 0.46875H69.3506C70.4163 0.46875 71.2817 1.33301 71.2817 2.40112Z" fill="#FF6469"/>
<path d="M14.9182 5.63599C14.9182 6.3147 14.3677 6.86523 13.6884 6.86523C13.0096 6.86523 12.4591 6.3147 12.4591 5.63599C12.4591 4.95667 13.0096 4.40613 13.6884 4.40613C14.3677 4.40613 14.9182 4.95667 14.9182 5.63599Z" fill="white"/>
<path d="M19.3445 5.63599C19.3445 6.3147 18.7939 6.86523 18.1146 6.86523C17.4359 6.86523 16.8854 6.3147 16.8854 5.63599C16.8854 4.95667 17.4359 4.40613 18.1146 4.40613C18.7939 4.40613 19.3445 4.95667 19.3445 5.63599Z" fill="white"/>
<path d="M23.7708 5.63599C23.7708 6.3147 23.2202 6.86523 22.5409 6.86523C21.8622 6.86523 21.3116 6.3147 21.3116 5.63599C21.3116 4.95667 21.8622 4.40613 22.5409 4.40613C23.2202 4.40613 23.7708 4.95667 23.7708 5.63599Z" fill="white"/>
<path d="M18.8367 14.6094H58.8391V33.0225H18.8367V14.6094Z" fill="#D1DEF8"/>
<path d="M29.1882 28.468L35.6366 22.0166L42.0544 28.4381L29.1882 28.468Z" fill="#185ADB"/>
<path d="M35.6213 28.468L42.0691 22.0166L48.4869 28.4381L35.6213 28.468Z" fill="#185ADB"/>
<path d="M40.1465 19.082C40.1465 19.7607 39.5959 20.3113 38.9166 20.3113C38.2379 20.3113 37.6874 19.7607 37.6874 19.082C37.6874 18.4027 38.2379 17.8522 38.9166 17.8522C39.5959 17.8522 40.1465 18.4027 40.1465 19.082Z" fill="white"/>
<path d="M18.8367 40.2454H58.8391C59.5178 40.2454 60.0684 39.6948 60.0684 39.0155C60.0684 38.3356 59.5178 37.785 58.8391 37.785H18.8367C18.1573 37.785 17.6068 38.3356 17.6068 39.0155C17.6068 39.6948 18.1573 40.2454 18.8367 40.2454Z" fill="#AFB9D2"/>
<path d="M58.8391 43.1976H18.8367C18.1573 43.1976 17.6068 43.7488 17.6068 44.4281C17.6068 45.1074 18.1573 45.658 18.8367 45.658H58.8391C59.5178 45.658 60.0684 45.1074 60.0684 44.4281C60.0684 43.7488 59.5178 43.1976 58.8391 43.1976Z" fill="#AFB9D2"/>
<path d="M58.8391 48.6108H18.8367C18.1573 48.6108 17.6068 49.1614 17.6068 49.8407C17.6068 50.52 18.1573 51.0712 18.8367 51.0712H58.8391C59.5178 51.0712 60.0684 50.52 60.0684 49.8407C60.0684 49.1614 59.5178 48.6108 58.8391 48.6108Z" fill="#AFB9D2"/>
<path d="M58.8391 54.0234H18.8367C18.1573 54.0234 17.6068 54.5746 17.6068 55.2539C17.6068 55.9332 18.1573 56.4838 18.8367 56.4838H58.8391C59.5178 56.4838 60.0684 55.9332 60.0684 55.2539C60.0684 54.5746 59.5178 54.0234 58.8391 54.0234Z" fill="#AFB9D2"/>
<path d="M39.4427 59.4366H18.8367C18.1573 59.4366 17.6068 59.9872 17.6068 60.6665C17.6068 61.3458 18.1573 61.897 18.8367 61.897H39.4427C40.1215 61.897 40.672 61.3458 40.672 60.6665C40.672 59.9872 40.1215 59.4366 39.4427 59.4366Z" fill="#AFB9D2"/>
</g>
<defs>
<clipPath id="clip0">
<rect width="80.0002" height="80" fill="white"/>
</clipPath>
</defs>
</svg>
