<svg width="80" height="80" viewBox="0 0 80 80" fill="none" xmlns="http://www.w3.org/2000/svg">
<g clip-path="url(#clip0)">
<path d="M40 80C62.0914 80 80 62.0914 80 40C80 17.9086 62.0914 0 40 0C17.9086 0 0 17.9086 0 40C0 62.0914 17.9086 80 40 80Z" fill="#185ADB"/>
<path d="M0 40C0 62.0914 17.9086 80 40 80C49.4969 80 58.2189 76.6883 65.0792 71.1597C65.0792 57.2275 65.0792 24.2045 65.0792 22.623H3.96219C1.42344 27.878 0 33.7727 0 40Z" fill="#EAF3F9"/>
<path d="M17.9397 22.6228H3.96219C1.42344 27.878 0 33.7727 0 40C0 53.9375 7.12984 66.2081 17.9397 73.3689V22.6228Z" fill="#C5DEF3"/>
<path d="M5.75555 60.6805H12.3399V43.7156H0.173828C0.741953 49.883 2.70805 55.6452 5.75555 60.6805Z" fill="#A3CCEF"/>
<path d="M12.3379 68.8931C16.3388 72.7244 21.1343 75.7316 26.452 77.6455H29.9177V60.6805H12.3379V68.8931Z" fill="#FFACA6"/>
<path d="M17.9382 60.6805H12.3379V68.8931C14.064 70.5459 15.9385 72.0444 17.9384 73.3689V60.6805H17.9382Z" fill="#F9918F"/>
<path d="M29.9195 26.7506H12.3398V43.715H29.9195V26.7506Z" fill="#C5DEF3"/>
<path d="M17.9403 26.7506H12.3398V43.715H17.9403V26.7506Z" fill="#A3CCEF"/>
<path d="M47.4996 43.715H29.9199V60.6794H47.4996V43.715Z" fill="#C5DEF3"/>
<path d="M65.0797 26.7506H47.5V43.715H65.0797V26.7506Z" fill="#C5DEF3"/>
<path d="M47.5 77.6458H53.5473C57.7659 76.1275 61.6547 73.92 65.08 71.1597V60.6808H47.5V77.6458Z" fill="#C5DEF3"/>
<path d="M12.3402 68.8931V60.6805H5.75586C7.58492 63.703 9.80289 66.4634 12.3402 68.8931Z" fill="#FA6E62"/>
<path d="M0 40C0 41.2531 0.060625 42.4919 0.173281 43.7156H12.3394V26.7505H2.24969C0.794219 30.8977 0 35.3558 0 40Z" fill="#85BBEB"/>
<path d="M29.9195 43.715H12.3398V60.6794H29.9195V43.715Z" fill="#A3CCEF"/>
<path d="M17.9403 43.715H12.3398V60.6794H17.9403V43.715Z" fill="#85BBEB"/>
<path d="M47.4996 60.6811H29.9199V77.6455H47.4996V60.6811Z" fill="#F9918F"/>
<path d="M47.4996 26.7506H29.9199V43.715H47.4996V26.7506Z" fill="#A3CCEF"/>
<path d="M65.0797 43.715H47.5V60.6794H65.0797V43.715Z" fill="#A3CCEF"/>
<path d="M65.0798 22.6228V6.15562C65.0798 4.78656 63.9596 3.6664 62.5905 3.6664H23.2546C14.8334 7.55406 7.99227 14.2816 3.96289 22.6228H65.0798Z" fill="#FB4A34"/>
<path d="M17.9386 6.6311C11.9583 10.592 7.10422 16.1163 3.96094 22.6228H17.9386V6.6311Z" fill="#ED3B2E"/>
<path d="M53.8784 15.3652C55.4022 15.3652 56.6376 14.1298 56.6376 12.6059C56.6376 11.0821 55.4022 9.84672 53.8784 9.84672C52.3545 9.84672 51.1191 11.0821 51.1191 12.6059C51.1191 14.1298 52.3545 15.3652 53.8784 15.3652Z" fill="#DB2E26"/>
<path d="M41.8998 15.3652C43.4237 15.3652 44.6591 14.1298 44.6591 12.6059C44.6591 11.0821 43.4237 9.84672 41.8998 9.84672C40.376 9.84672 39.1406 11.0821 39.1406 12.6059C39.1406 14.1298 40.376 15.3652 41.8998 15.3652Z" fill="#DB2E26"/>
<path d="M29.9213 15.3652C31.4452 15.3652 32.6805 14.1298 32.6805 12.6059C32.6805 11.0821 31.4452 9.84672 29.9213 9.84672C28.3975 9.84672 27.1621 11.0821 27.1621 12.6059C27.1621 14.1298 28.3975 15.3652 29.9213 15.3652Z" fill="#DB2E26"/>
<path d="M17.9409 15.3652C19.4647 15.3652 20.7001 14.1298 20.7001 12.6059C20.7001 11.0821 19.4647 9.84672 17.9409 9.84672C16.417 9.84672 15.1816 11.0821 15.1816 12.6059C15.1816 14.1298 16.417 15.3652 17.9409 15.3652Z" fill="#DB2E26"/>
<path d="M17.9397 13.6395C18.683 13.6395 19.2858 13.0369 19.2858 12.2934V5.77891C18.3634 6.33828 17.4652 6.93297 16.5938 7.56281V12.2934C16.5936 13.0369 17.1964 13.6395 17.9397 13.6395Z" fill="#C5DEF3"/>
<path d="M29.9184 13.6395C29.1751 13.6395 28.5723 13.0369 28.5723 12.2934V1.34609C28.5723 0.602812 29.1749 0 29.9184 0C30.6616 0 31.2645 0.602656 31.2645 1.34609V12.2937C31.2645 13.0369 30.6616 13.6395 29.9184 13.6395Z" fill="#C5DEF3"/>
<path d="M41.8988 13.6395C41.1555 13.6395 40.5527 13.0369 40.5527 12.2934V1.34609C40.5527 0.602812 41.1554 0 41.8988 0C42.6423 0 43.2449 0.602656 43.2449 1.34609V12.2937C43.2449 13.0369 42.6423 13.6395 41.8988 13.6395Z" fill="#C5DEF3"/>
<path d="M53.8773 13.6395C53.1341 13.6395 52.5312 13.0369 52.5312 12.2934V1.34609C52.5312 0.602812 53.1339 0 53.8773 0C54.6206 0 55.2234 0.602656 55.2234 1.34609V12.2937C55.2234 13.0369 54.6209 13.6395 53.8773 13.6395Z" fill="#C5DEF3"/>
<path d="M40.5719 69.6037L42.3406 67.835C42.855 67.3205 42.855 66.4866 42.3406 65.972C41.8263 65.458 40.9922 65.458 40.4778 65.972L38.7089 67.7409L36.94 65.972C36.4256 65.458 35.5916 65.458 35.0772 65.972C34.5628 66.4866 34.5628 67.3205 35.0772 67.835L36.8459 69.6037L35.0772 71.3725C34.5628 71.887 34.5628 72.7209 35.0772 73.2355C35.5917 73.7498 36.4256 73.7497 36.94 73.2355L38.7089 71.4666L40.4778 73.2355C40.9924 73.7498 41.8263 73.7497 42.3406 73.2355C42.855 72.7209 42.855 71.887 42.3406 71.3725L40.5719 69.6037Z" fill="#ED3B2E"/>
<path d="M23.3277 69.6453L25.0965 67.8766C25.6109 67.362 25.6109 66.5281 25.0965 66.0136C24.5821 65.4995 23.748 65.4995 23.2337 66.0136L21.4648 67.7825L19.6959 66.0136C19.1815 65.4995 18.3474 65.4995 17.833 66.0136C17.3187 66.5281 17.3187 67.362 17.833 67.8766L19.6018 69.6453L17.833 71.4141C17.3187 71.9286 17.3187 72.7625 17.833 73.277C18.3476 73.7914 19.1815 73.7912 19.6959 73.277L21.4648 71.5081L23.2337 73.277C23.7482 73.7914 24.5821 73.7912 25.0965 73.277C25.6109 72.7625 25.6109 71.9286 25.0965 71.4141L23.3277 69.6453Z" fill="#FB4A34"/>
<path d="M63.0611 19.3969L73.7051 25.5423L77.6486 18.7122L67.0046 12.5667L63.0611 19.3969Z" fill="#EAF3F9"/>
<path d="M63.0631 19.3974L73.707 25.5429L75.6245 22.2219L64.9805 16.0764L63.0631 19.3974Z" fill="#C5DEF3"/>
<path d="M63.0647 19.3968L66.666 21.4761L70.6095 14.6459L67.0082 12.5666L63.0647 19.3968Z" fill="#C5DEF3"/>
<path d="M63.0627 19.3959L66.6641 21.4752L68.5815 18.1542L64.9801 16.0749L63.0627 19.3959Z" fill="#A3CCEF"/>
<path d="M76.9264 7.67687C73.987 5.97984 70.2284 6.98687 68.5314 9.92625L66.8594 12.8222L77.5038 18.9678L79.1758 16.0719C80.8728 13.1325 79.8656 9.3739 76.9264 7.67687Z" fill="#FB4A34"/>
<path d="M72.1684 11.962C73.4181 9.7975 75.6367 8.54297 77.9598 8.42609C77.6481 8.14672 77.3034 7.89469 76.9264 7.67719C73.987 5.98016 70.2284 6.98719 68.5314 9.92656L66.8594 12.8225L70.4684 14.9062L72.1684 11.962Z" fill="#ED3B2E"/>
<path d="M63.2066 19.148L43.584 53.1356C44.1496 52.1559 45.4026 51.8202 46.3823 52.3859C47.362 52.9517 47.6977 54.2045 47.132 55.1842L66.7546 21.1966L63.2066 19.148Z" fill="#F99428"/>
<path d="M66.7555 21.1964L47.1328 55.1841C47.6984 54.2044 48.9514 53.8686 49.9311 54.4344C50.9108 55 51.2466 56.253 50.6808 57.2327L70.3034 23.245L66.7555 21.1964Z" fill="#FCAD19"/>
<path d="M70.3023 23.245L50.6797 57.2325C51.2453 56.2528 52.4983 55.917 53.478 56.4828C54.4577 57.0484 54.7934 58.3014 54.2277 59.2811L73.8503 25.2934L70.3023 23.245Z" fill="#FEC50A"/>
<path d="M53.4796 56.4828C52.7615 56.0681 51.8976 56.1395 51.2643 56.5923C51.2036 56.6358 51.1242 56.6428 51.0595 56.6053L51.0521 56.6011C50.9809 56.5598 50.9375 56.4819 50.9451 56.3997C51.0175 55.6273 50.6473 54.8475 49.9315 54.4341C49.2134 54.0195 48.3496 54.0908 47.7162 54.5434C47.6531 54.5886 47.5684 54.5895 47.5011 54.5506C47.4315 54.5105 47.3889 54.4342 47.3965 54.3542C47.4701 53.5808 47.1 52.7994 46.3832 52.3853C45.4036 51.8197 44.1506 52.1553 43.585 53.135L41.5681 66.7717C41.415 67.8072 42.6079 68.4959 43.4279 67.8455L54.2293 59.2805C54.7953 58.3014 54.4595 57.0484 53.4796 56.4828Z" fill="#FCDB7E"/>
<path d="M43.6151 67.6975L47.4325 54.4848C47.4067 54.4469 47.3918 54.4017 47.3965 54.3544C47.4701 53.5809 47.1 52.7995 46.3832 52.3855C45.4036 51.8198 44.1506 52.1555 43.585 53.1353L41.5681 66.772C41.415 67.8075 42.6079 68.4962 43.4279 67.8458L43.6151 67.6975Z" fill="#FEC50A"/>
<path d="M45.5695 61.9894C44.5192 61.383 43.5192 60.7233 42.5668 60.0187L41.5681 66.7722C41.415 67.8075 42.6079 68.4964 43.4279 67.8459L48.7771 63.6042C47.6911 63.132 46.6198 62.5956 45.5695 61.9894Z" fill="#994E04"/>
<path d="M42.6053 68.0937C43.1824 68.15 43.5166 67.7536 43.6138 67.6975L45.3078 61.8341C44.353 61.2703 43.4382 60.6644 42.5655 60.0187L41.6153 66.4436C41.6089 66.6591 41.4624 66.9739 41.6494 67.402C41.8182 67.7889 42.1928 68.0537 42.6053 68.0937Z" fill="#7F3B04"/>
</g>
<defs>
<clipPath id="clip0">
<rect width="80" height="80" fill="white"/>
</clipPath>
</defs>
</svg>
