<svg width="80" height="80" viewBox="0 0 80 80" fill="none" xmlns="http://www.w3.org/2000/svg">
<g clip-path="url(#clip0)">
<path d="M40 80C62.0914 80 80 62.0914 80 40C80 17.9086 62.0914 0 40 0C17.9086 0 0 17.9086 0 40C0 62.0914 17.9086 80 40 80Z" fill="#185ADB"/>
<path d="M6.5293 61.9077C13.6752 72.8035 25.9957 80.0011 39.9991 80.0011C53.7824 80.0011 67.5637 80.0011 69.0909 80.0011C71.509 80.0011 73.4691 78.0408 73.4691 75.6228C73.4691 72.9164 73.4691 25.5738 73.4691 23.7177H6.5293C6.5293 25.0546 6.5293 46.9535 6.5293 61.9077Z" fill="#EAF3F9"/>
<path d="M16.4949 23.7177H6.5293C6.5293 25.0546 6.5293 46.9533 6.5293 61.9075C9.19258 65.9685 12.5751 69.5152 16.4952 72.3675C16.4949 61.0888 16.4949 25.3261 16.4949 23.7177Z" fill="#C5DEF3"/>
<path d="M71.0998 5.67018H8.89898C7.5957 5.67018 6.5293 6.73643 6.5293 8.03987V23.7156H73.4695V8.03987C73.4695 6.73643 72.403 5.67018 71.0998 5.67018Z" fill="#FB4A34"/>
<path d="M19.0213 5.67018H8.89898C7.5957 5.67018 6.5293 6.73643 6.5293 8.03987V23.7156H16.6518V8.03987C16.6516 6.73643 17.718 5.67018 19.0213 5.67018Z" fill="#ED3B2E"/>
<path d="M17.1912 16.8089C18.6419 16.8089 19.8179 15.6329 19.8179 14.1822C19.8179 12.7315 18.6419 11.5555 17.1912 11.5555C15.7405 11.5555 14.5645 12.7315 14.5645 14.1822C14.5645 15.6329 15.7405 16.8089 17.1912 16.8089Z" fill="#DB2E26"/>
<path d="M62.8064 16.8089C64.2571 16.8089 65.4331 15.6329 65.4331 14.1822C65.4331 12.7315 64.2571 11.5555 62.8064 11.5555C61.3557 11.5555 60.1797 12.7315 60.1797 14.1822C60.1797 15.6329 61.3557 16.8089 62.8064 16.8089Z" fill="#DB2E26"/>
<path d="M51.4041 16.8089C52.8548 16.8089 54.0308 15.6329 54.0308 14.1822C54.0308 12.7315 52.8548 11.5555 51.4041 11.5555C49.9534 11.5555 48.7773 12.7315 48.7773 14.1822C48.7773 15.6329 49.9534 16.8089 51.4041 16.8089Z" fill="#DB2E26"/>
<path d="M39.9978 16.8089C41.4485 16.8089 42.6245 15.6329 42.6245 14.1822C42.6245 12.7315 41.4485 11.5555 39.9978 11.5555C38.5471 11.5555 37.3711 12.7315 37.3711 14.1822C37.3711 15.6329 38.5471 16.8089 39.9978 16.8089Z" fill="#DB2E26"/>
<path d="M28.5935 16.8089C30.0442 16.8089 31.2202 15.6329 31.2202 14.1822C31.2202 12.7315 30.0442 11.5555 28.5935 11.5555C27.1428 11.5555 25.9668 12.7315 25.9668 14.1822C25.9668 15.6329 27.1428 16.8089 28.5935 16.8089Z" fill="#DB2E26"/>
<path d="M6.81617 27.932L9.64492 29.2317C10.0276 29.4075 10.4676 29.4075 10.8502 29.2317L13.3634 28.077C13.7459 27.9012 14.186 27.9012 14.5687 28.077L17.0823 29.2317C17.4648 29.4075 17.9049 29.4075 18.2874 29.2317L20.8007 28.077C21.1832 27.9012 21.6234 27.9012 22.006 28.077L24.5193 29.2317C24.902 29.4075 25.342 29.4075 25.7246 29.2317L28.2379 28.077C28.6205 27.9012 29.0605 27.9012 29.4432 28.077L31.9565 29.2317C32.3391 29.4075 32.7791 29.4073 33.1618 29.2317L35.6748 28.0771C36.0574 27.9014 36.4974 27.9014 36.8801 28.0771L39.3935 29.2318C39.7762 29.4076 40.2162 29.4074 40.5988 29.2318L43.1118 28.0773C43.4945 27.9015 43.9346 27.9015 44.3171 28.0773L46.8302 29.232C47.2129 29.4078 47.6529 29.4078 48.0355 29.232L50.549 28.0773C50.9315 27.9017 51.3716 27.9017 51.7541 28.0773L54.2681 29.232C54.6506 29.4076 55.0907 29.4076 55.4732 29.232L57.9871 28.0771C58.3696 27.9015 58.8098 27.9015 59.1923 28.0771L61.7063 29.232C62.0888 29.4076 62.5288 29.4076 62.9115 29.232L65.4257 28.0771C65.8082 27.9015 66.2482 27.9015 66.6307 28.0771L69.1455 29.2321C69.528 29.4078 69.968 29.4078 70.3505 29.2321L73.181 27.9321C73.2732 27.8898 73.3693 27.8578 73.4679 27.8357C73.4679 25.5207 73.4679 24.0184 73.4679 23.7171H6.5293C6.5293 24.0371 6.5293 25.5367 6.5293 27.8357C6.62773 27.8575 6.72398 27.8896 6.81617 27.932Z" fill="#C5DEF3"/>
<path d="M6.81602 27.933L9.64477 29.2327C10.0274 29.4085 10.4674 29.4085 10.8501 29.2327L13.3632 28.078C13.7457 27.9022 14.1859 27.9022 14.5685 28.078L16.4948 28.9628C16.4948 26.0124 16.4948 24.0657 16.4948 23.7177H6.5293C6.5293 24.0377 6.5293 25.5378 6.5293 27.8363C6.62758 27.8585 6.72383 27.8907 6.81602 27.933Z" fill="#A3CCEF"/>
<path d="M14.1641 46.8878H18.558C18.7953 46.8878 18.9877 47.0801 18.9877 47.3175V51.7114C18.9877 51.9487 18.7953 52.1411 18.558 52.1411H14.1641C13.9267 52.1411 13.7344 51.9487 13.7344 51.7114V47.3175C13.7344 47.0801 13.9267 46.8878 14.1641 46.8878Z" fill="#67AAE6"/>
<path d="M16.4972 46.8878H14.1641C13.9267 46.8878 13.7344 47.0801 13.7344 47.3175V51.7114C13.7344 51.9487 13.9267 52.1411 14.1641 52.1411H16.4972C16.4972 50.3942 16.4972 48.6326 16.4972 46.8878Z" fill="#4C98E0"/>
<path d="M14.1641 56.5392H18.558C18.7953 56.5392 18.9877 56.7316 18.9877 56.9689V61.3628C18.9877 61.6002 18.7953 61.7925 18.558 61.7925H14.1641C13.9267 61.7925 13.7344 61.6002 13.7344 61.3628V56.9689C13.7344 56.7316 13.9267 56.5392 14.1641 56.5392Z" fill="#67AAE6"/>
<path d="M16.4972 56.5392H14.1641C13.9267 56.5392 13.7344 56.7316 13.7344 56.9689V61.3628C13.7344 61.6002 13.9267 61.7925 14.1641 61.7925H16.4972C16.4972 60.1144 16.4972 58.3506 16.4972 56.5392Z" fill="#4C98E0"/>
<path d="M18.558 66.1874H14.1641C13.9267 66.1874 13.7344 66.3797 13.7344 66.617V70.1639C14.2372 70.6022 14.7516 71.0275 15.2759 71.4406H18.558C18.7953 71.4406 18.9877 71.2483 18.9877 71.0109V66.617C18.9877 66.3799 18.7953 66.1874 18.558 66.1874Z" fill="#67AAE6"/>
<path d="M16.4972 71.4408C16.4972 69.9739 16.4972 68.1914 16.4972 66.1874H14.1641C13.9267 66.1874 13.7344 66.3797 13.7344 66.617V70.1624C13.8159 70.2334 13.8988 70.303 13.9809 70.3735C14.1303 70.5016 14.2795 70.6297 14.4308 70.7555C14.5189 70.8288 14.6081 70.9006 14.6969 70.9731C14.8614 71.1077 15.0262 71.2416 15.1927 71.3735C15.2211 71.396 15.2502 71.4181 15.2787 71.4406H16.4972V71.4408Z" fill="#4C98E0"/>
<path d="M23.6191 46.8878H28.013C28.2504 46.8878 28.4427 47.0801 28.4427 47.3175V51.7114C28.4427 51.9487 28.2504 52.1411 28.013 52.1411H23.6191C23.3818 52.1411 23.1895 51.9487 23.1895 51.7114V47.3175C23.1895 47.0801 23.3818 46.8878 23.6191 46.8878Z" fill="#67AAE6"/>
<path d="M14.1641 37.2404H18.558C18.7953 37.2404 18.9877 37.4328 18.9877 37.6701V42.064C18.9877 42.3013 18.7953 42.4937 18.558 42.4937H14.1641C13.9267 42.4937 13.7344 42.3013 13.7344 42.064V37.6701C13.7344 37.4329 13.9267 37.2404 14.1641 37.2404Z" fill="#C5DEF3"/>
<path d="M16.4972 37.2404H14.1641C13.9267 37.2404 13.7344 37.4328 13.7344 37.6701V42.064C13.7344 42.3013 13.9267 42.4937 14.1641 42.4937H16.4972C16.4972 40.6788 16.4972 38.9146 16.4972 37.2404Z" fill="#A3CCEF"/>
<path d="M23.6191 37.2404H28.013C28.2504 37.2404 28.4427 37.4328 28.4427 37.6701V42.064C28.4427 42.3013 28.2504 42.4937 28.013 42.4937H23.6191C23.3818 42.4937 23.1895 42.3013 23.1895 42.064V37.6701C23.1895 37.4329 23.3818 37.2404 23.6191 37.2404Z" fill="#A3CCEF"/>
<path d="M23.6191 56.5392H28.013C28.2504 56.5392 28.4427 56.7316 28.4427 56.9689V61.3628C28.4427 61.6002 28.2504 61.7925 28.013 61.7925H23.6191C23.3818 61.7925 23.1895 61.6002 23.1895 61.3628V56.9689C23.1895 56.7316 23.3818 56.5392 23.6191 56.5392Z" fill="#67AAE6"/>
<path d="M23.6191 66.1873H28.013C28.2504 66.1873 28.4427 66.3797 28.4427 66.617V71.0109C28.4427 71.2483 28.2504 71.4406 28.013 71.4406H23.6191C23.3818 71.4406 23.1895 71.2483 23.1895 71.0109V66.617C23.1895 66.3798 23.3818 66.1873 23.6191 66.1873Z" fill="#67AAE6"/>
<path d="M37.4681 42.493H33.0742C32.8369 42.493 32.6445 42.3006 32.6445 42.0633V37.6693C32.6445 37.432 32.8369 37.2397 33.0742 37.2397H37.4681C37.7055 37.2397 37.8978 37.432 37.8978 37.6693V42.0633C37.898 42.3006 37.7055 42.493 37.4681 42.493Z" fill="#67AAE6"/>
<path d="M33.0742 46.8878H37.4681C37.7055 46.8878 37.8978 47.0801 37.8978 47.3175V51.7114C37.8978 51.9487 37.7055 52.1411 37.4681 52.1411H33.0742C32.8369 52.1411 32.6445 51.9487 32.6445 51.7114V47.3175C32.6445 47.0801 32.8369 46.8878 33.0742 46.8878Z" fill="#67AAE6"/>
<path d="M33.0742 56.5392H37.4681C37.7055 56.5392 37.8978 56.7316 37.8978 56.9689V61.3628C37.8978 61.6002 37.7055 61.7925 37.4681 61.7925H33.0742C32.8369 61.7925 32.6445 61.6002 32.6445 61.3628V56.9689C32.6445 56.7316 32.8369 56.5392 33.0742 56.5392Z" fill="#67AAE6"/>
<path d="M33.0742 66.1873H37.4681C37.7055 66.1873 37.8978 66.3797 37.8978 66.617V71.0109C37.8978 71.2483 37.7055 71.4406 37.4681 71.4406H33.0742C32.8369 71.4406 32.6445 71.2483 32.6445 71.0109V66.617C32.6445 66.3798 32.8369 66.1873 33.0742 66.1873Z" fill="#67AAE6"/>
<path d="M46.9252 42.493H42.5312C42.2939 42.493 42.1016 42.3006 42.1016 42.0633V37.6693C42.1016 37.432 42.2939 37.2397 42.5312 37.2397H46.9252C47.1625 37.2397 47.3548 37.432 47.3548 37.6693V42.0633C47.3548 42.3006 47.1625 42.493 46.9252 42.493Z" fill="#67AAE6"/>
<path d="M42.5313 46.8878H46.9252C47.1625 46.8878 47.3548 47.0801 47.3548 47.3175V51.7114C47.3548 51.9487 47.1625 52.1411 46.9252 52.1411H42.5313C42.2939 52.1411 42.1016 51.9487 42.1016 51.7114V47.3175C42.1014 47.0801 42.2939 46.8878 42.5313 46.8878Z" fill="#67AAE6"/>
<path d="M42.5313 56.5392H46.9252C47.1625 56.5392 47.3548 56.7316 47.3548 56.9689V61.3628C47.3548 61.6002 47.1625 61.7925 46.9252 61.7925H42.5313C42.2939 61.7925 42.1016 61.6002 42.1016 61.3628V56.9689C42.1014 56.7316 42.2939 56.5392 42.5313 56.5392Z" fill="#67AAE6"/>
<path d="M42.5293 66.1874H46.9232C47.1605 66.1874 47.3529 66.3797 47.3529 66.617V71.0109C47.3529 71.2483 47.1605 71.4406 46.9232 71.4406H42.5293C42.292 71.4406 42.0996 71.2483 42.0996 71.0109V66.617C42.0995 66.3799 42.292 66.1874 42.5293 66.1874Z" fill="#C5DEF3"/>
<path d="M56.3802 42.493H51.9863C51.749 42.493 51.5566 42.3006 51.5566 42.0633V37.6693C51.5566 37.432 51.749 37.2397 51.9863 37.2397H56.3802C56.6176 37.2397 56.8099 37.432 56.8099 37.6693V42.0633C56.8099 42.3006 56.6176 42.493 56.3802 42.493Z" fill="#67AAE6"/>
<path d="M51.9863 46.8878H56.3802C56.6176 46.8878 56.8099 47.0801 56.8099 47.3175V51.7114C56.8099 51.9487 56.6176 52.1411 56.3802 52.1411H51.9863C51.749 52.1411 51.5566 51.9487 51.5566 51.7114V47.3175C51.5565 47.0801 51.749 46.8878 51.9863 46.8878Z" fill="#67AAE6"/>
<path d="M51.9863 56.5392H56.3802C56.6176 56.5392 56.8099 56.7316 56.8099 56.9689V61.3628C56.8099 61.6002 56.6176 61.7925 56.3802 61.7925H51.9863C51.749 61.7925 51.5566 61.6002 51.5566 61.3628V56.9689C51.5565 56.7316 51.749 56.5392 51.9863 56.5392Z" fill="#67AAE6"/>
<path d="M65.8353 42.493H61.4414C61.2041 42.493 61.0117 42.3006 61.0117 42.0633V37.6693C61.0117 37.432 61.2041 37.2397 61.4414 37.2397H65.8353C66.0727 37.2397 66.265 37.432 66.265 37.6693V42.0633C66.265 42.3006 66.0727 42.493 65.8353 42.493Z" fill="#67AAE6"/>
<path d="M61.4414 46.8878H65.8353C66.0727 46.8878 66.265 47.0801 66.265 47.3175V51.7114C66.265 51.9487 66.0727 52.1411 65.8353 52.1411H61.4414C61.2041 52.1411 61.0117 51.9487 61.0117 51.7114V47.3175C61.0117 47.0801 61.2041 46.8878 61.4414 46.8878Z" fill="#67AAE6"/>
<path d="M61.4414 56.5392H65.8353C66.0727 56.5392 66.265 56.7316 66.265 56.9689V61.3628C66.265 61.6002 66.0727 61.7925 65.8353 61.7925H61.4414C61.2041 61.7925 61.0117 61.6002 61.0117 61.3628V56.9689C61.0117 56.7316 61.2041 56.5392 61.4414 56.5392Z" fill="#67AAE6"/>
<path d="M51.9863 66.1874H56.3802C56.6176 66.1874 56.8099 66.3797 56.8099 66.617V71.0109C56.8099 71.2483 56.6176 71.4406 56.3802 71.4406H51.9863C51.749 71.4406 51.5566 71.2483 51.5566 71.0109V66.617C51.5565 66.3799 51.749 66.1874 51.9863 66.1874Z" fill="#C5DEF3"/>
<path d="M61.4453 66.1874H65.8392C66.0766 66.1874 66.2689 66.3797 66.2689 66.617V71.0109C66.2689 71.2483 66.0766 71.4406 65.8392 71.4406H61.4453C61.208 71.4406 61.0156 71.2483 61.0156 71.0109V66.617C61.0156 66.3799 61.208 66.1874 61.4453 66.1874Z" fill="#C5DEF3"/>
<path d="M17.1934 14.8229C16.4857 14.8229 15.9121 14.2493 15.9121 13.5417V3.12025C15.9121 2.4126 16.4857 1.839 17.1934 1.839C17.901 1.839 18.4746 2.4126 18.4746 3.12025V13.5415C18.4748 14.2493 17.9012 14.8229 17.1934 14.8229Z" fill="#C5DEF3"/>
<path d="M28.5957 14.8229C27.888 14.8229 27.3145 14.2493 27.3145 13.5417V3.12025C27.3145 2.4126 27.888 1.839 28.5957 1.839C29.3034 1.839 29.877 2.4126 29.877 3.12025V13.5415C29.877 14.2493 29.3034 14.8229 28.5957 14.8229Z" fill="#C5DEF3"/>
<path d="M40 14.8229C39.2923 14.8229 38.7188 14.2493 38.7188 13.5417V3.12025C38.7188 2.4126 39.2923 1.839 40 1.839C40.7076 1.839 41.2812 2.4126 41.2812 3.12025V13.5415C41.2814 14.2493 40.7076 14.8229 40 14.8229Z" fill="#C5DEF3"/>
<path d="M51.4063 14.8229C50.6986 14.8229 50.125 14.2493 50.125 13.5417V3.12025C50.125 2.4126 50.6986 1.839 51.4063 1.839C52.1139 1.839 52.6875 2.4126 52.6875 3.12025V13.5415C52.6877 14.2493 52.1138 14.8229 51.4063 14.8229Z" fill="#C5DEF3"/>
<path d="M62.8086 14.8229C62.1009 14.8229 61.5273 14.2493 61.5273 13.5417V3.12025C61.5273 2.4126 62.1009 1.839 62.8086 1.839C63.5162 1.839 64.0898 2.4126 64.0898 3.12025V13.5415C64.0898 14.2493 63.5162 14.8229 62.8086 14.8229Z" fill="#C5DEF3"/>
<path d="M73.4625 61.1744C73.3008 67.6247 69.2631 70.8777 68.1038 72.0945L66.7691 73.4292C63.38 76.7314 63.3795 77.1914 60.1986 78.8117C58.6116 79.5339 56.8847 79.9414 55.1133 79.9936V79.9997C62.5239 79.9997 68.1481 79.9997 69.0919 79.9997C71.5098 79.9997 73.4702 78.0394 73.4702 75.6214C73.4702 74.7114 73.4702 68.7522 73.4702 61.1742H73.4625V61.1744Z" fill="#A3CCEF"/>
<path d="M66.2672 75.6222C66.2672 75.3834 66.2672 74.7948 66.2672 73.923C63.3919 76.7684 63.212 77.2778 60.1986 78.8125C58.6117 79.5347 56.8847 79.9422 55.1133 79.9944V80.0005C62.5239 80.0005 68.1481 80.0005 69.0919 80.0005C69.357 80.0005 69.6164 79.9756 69.8688 79.9303C67.8216 79.5636 66.2672 77.775 66.2672 75.6222Z" fill="#85BBEB"/>
<path d="M63.5939 67.0039C61.8703 67.0039 60.4733 68.401 60.4733 70.1245V71.8716C60.4733 78.4447 55.1133 80.0006 55.1133 80.0006C56.9805 80.0006 58.8059 79.5963 60.4733 78.8372C63.5941 77.2474 63.5967 76.7922 66.9075 73.5661L68.2145 72.2591C69.373 71.043 73.4698 67.7527 73.4698 61.175C73.47 61.1753 71.2355 67.0039 63.5939 67.0039Z" fill="#C5DEF3"/>
<path d="M65.2681 70.5872C65.2681 69.0227 65.903 67.6066 66.9292 66.582C65.9528 66.8442 64.8475 67.0031 63.5939 67.0031C61.8703 67.0031 60.4733 68.4002 60.4733 70.1237V71.8708C60.4733 78.4439 55.1133 79.9998 55.1133 79.9998C56.9805 79.9998 58.8058 79.5953 60.4733 78.8364C63.3934 77.3489 63.5495 76.883 66.4359 74.0286C65.7041 73.075 65.2681 71.8825 65.2681 70.5872Z" fill="#A3CCEF"/>
</g>
<defs>
<clipPath id="clip0">
<rect width="80" height="80" fill="white"/>
</clipPath>
</defs>
</svg>
