<svg width="14" height="14" viewBox="0 0 14 14" fill="none" xmlns="http://www.w3.org/2000/svg">
<path d="M6.99992 0.333496C10.6819 0.333496 13.6666 3.31816 13.6666 7.00016C13.6666 10.6822 10.6819 13.6668 6.99992 13.6668C3.31792 13.6668 0.333252 10.6822 0.333252 7.00016C0.333252 3.31816 3.31792 0.333496 6.99992 0.333496ZM6.99992 1.66683C5.58543 1.66683 4.22888 2.22873 3.22868 3.22893C2.22849 4.22912 1.66659 5.58567 1.66659 7.00016C1.66659 8.41465 2.22849 9.77121 3.22868 10.7714C4.22888 11.7716 5.58543 12.3335 6.99992 12.3335C8.41441 12.3335 9.77096 11.7716 10.7712 10.7714C11.7713 9.77121 12.3333 8.41465 12.3333 7.00016C12.3333 5.58567 11.7713 4.22912 10.7712 3.22893C9.77096 2.22873 8.41441 1.66683 6.99992 1.66683ZM6.99992 3.66683C7.70164 3.6671 8.38538 3.88881 8.95373 4.30039C9.52208 4.71197 9.94605 5.29241 10.1652 5.95903C10.3844 6.62565 10.3876 7.34443 10.1744 8.01298C9.96118 8.68153 9.54241 9.26573 8.97776 9.68237C8.41311 10.099 7.73138 10.3268 7.02969 10.3334C6.32799 10.3399 5.64213 10.1248 5.06982 9.71875C4.49751 9.3127 4.06795 8.73639 3.84232 8.07193C3.6167 7.40746 3.60652 6.68875 3.81325 6.01816C3.9692 6.36664 4.2401 6.65098 4.58062 6.8236C4.92114 6.99623 5.31062 7.04666 5.68388 6.96647C6.05714 6.88627 6.39154 6.68031 6.6311 6.38305C6.87067 6.08579 7.00087 5.71527 6.99992 5.3335C7.00001 5.01247 6.90738 4.69826 6.73318 4.42861C6.55897 4.15897 6.3106 3.94537 6.01792 3.8135C6.33612 3.71595 6.66711 3.66652 6.99992 3.66683Z" fill="#304254"/>
</svg>
