<svg width="60" height="60" viewBox="0 0 60 60" fill="none" xmlns="http://www.w3.org/2000/svg">
<g clip-path="url(#clip0)">
<path d="M30 60C46.5685 60 60 46.5685 60 30C60 13.4315 46.5685 0 30 0C13.4315 0 0 13.4315 0 30C0 46.5685 13.4315 60 30 60Z" fill="#185ADB"/>
<path d="M4.89758 46.4308C10.257 54.6026 19.4974 60.0008 30 60.0008C40.3374 60.0008 50.6734 60.0008 51.8188 60.0008C53.6323 60.0008 55.1025 58.5306 55.1025 56.7171C55.1025 54.6873 55.1025 19.1803 55.1025 17.7883H4.89758C4.89758 18.7909 4.89758 35.2151 4.89758 46.4308Z" fill="#EAF3F9"/>
<path d="M12.3718 17.7883H4.89758C4.89758 18.7909 4.89758 35.215 4.89758 46.4307C6.89504 49.4764 9.43192 52.1364 12.372 54.2757C12.3718 45.8166 12.3718 18.9946 12.3718 17.7883Z" fill="#C5DEF3"/>
<path d="M53.3252 4.25262H6.6746C5.69714 4.25262 4.89734 5.05231 4.89734 6.02989V17.7867H55.1025V6.02989C55.1025 5.05231 54.3027 4.25262 53.3252 4.25262Z" fill="#FB4A34"/>
<path d="M14.2659 4.25262H6.67412C5.69666 4.25262 4.89685 5.05231 4.89685 6.02989V17.7867H12.4887V6.02989C12.4886 5.05231 13.2884 4.25262 14.2659 4.25262Z" fill="#ED3B2E"/>
<path d="M12.8936 12.6066C13.9816 12.6066 14.8637 11.7246 14.8637 10.6366C14.8637 9.54858 13.9816 8.66656 12.8936 8.66656C11.8056 8.66656 10.9236 9.54858 10.9236 10.6366C10.9236 11.7246 11.8056 12.6066 12.8936 12.6066Z" fill="#DB2E26"/>
<path d="M47.1048 12.6066C48.1928 12.6066 49.0748 11.7246 49.0748 10.6366C49.0748 9.54858 48.1928 8.66656 47.1048 8.66656C46.0168 8.66656 45.1348 9.54858 45.1348 10.6366C45.1348 11.7246 46.0168 12.6066 47.1048 12.6066Z" fill="#DB2E26"/>
<path d="M38.5526 12.6066C39.6406 12.6066 40.5226 11.7246 40.5226 10.6366C40.5226 9.54858 39.6406 8.66656 38.5526 8.66656C37.4645 8.66656 36.5825 9.54858 36.5825 10.6366C36.5825 11.7246 37.4645 12.6066 38.5526 12.6066Z" fill="#DB2E26"/>
<path d="M29.9987 12.6066C31.0867 12.6066 31.9688 11.7246 31.9688 10.6366C31.9688 9.54858 31.0867 8.66656 29.9987 8.66656C28.9107 8.66656 28.0287 9.54858 28.0287 10.6366C28.0287 11.7246 28.9107 12.6066 29.9987 12.6066Z" fill="#DB2E26"/>
<path d="M21.4457 12.6066C22.5338 12.6066 23.4158 11.7246 23.4158 10.6366C23.4158 9.54858 22.5338 8.66656 21.4457 8.66656C20.3577 8.66656 19.4757 9.54858 19.4757 10.6366C19.4757 11.7246 20.3577 12.6066 21.4457 12.6066Z" fill="#DB2E26"/>
<path d="M5.11201 20.949L7.23357 21.9237C7.52056 22.0556 7.85056 22.0556 8.13755 21.9237L10.0224 21.0577C10.3093 20.9259 10.6394 20.9259 10.9264 21.0577L12.8116 21.9237C13.0985 22.0556 13.4286 22.0556 13.7154 21.9237L15.6004 21.0577C15.8873 20.9259 16.2174 20.9259 16.5044 21.0577L18.3894 21.9237C18.6763 22.0556 19.0063 22.0556 19.2933 21.9237L21.1783 21.0577C21.4653 20.9259 21.7953 20.9259 22.0823 21.0577L23.9672 21.9237C24.2542 22.0556 24.5842 22.0555 24.8712 21.9237L26.756 21.0578C27.0429 20.926 27.3729 20.926 27.6599 21.0578L29.545 21.9238C29.832 22.0557 30.162 22.0556 30.449 21.9238L32.3337 21.058C32.6207 20.9261 32.9508 20.9261 33.2377 21.058L35.1226 21.924C35.4095 22.0558 35.7395 22.0558 36.0265 21.924L37.9116 21.058C38.1985 20.9262 38.5286 20.9262 38.8155 21.058L40.7009 21.924C40.9878 22.0557 41.3179 22.0557 41.6048 21.924L43.4902 21.0578C43.7771 20.9261 44.1072 20.9261 44.3941 21.0578L46.2796 21.924C46.5665 22.0557 46.8965 22.0557 47.1835 21.924L49.0692 21.0578C49.356 20.9261 49.686 20.9261 49.9729 21.0578L51.859 21.9241C52.1459 22.0558 52.4759 22.0558 52.7628 21.9241L54.8856 20.9491C54.9548 20.9173 55.0269 20.8933 55.1008 20.8768C55.1008 19.1405 55.1008 18.0138 55.1008 17.7878H4.89685C4.89685 18.0278 4.89685 19.1525 4.89685 20.8768C4.97068 20.8931 5.04287 20.9172 5.11201 20.949Z" fill="#C5DEF3"/>
<path d="M5.11262 20.9498L7.23418 21.9245C7.52118 22.0564 7.85118 22.0564 8.13817 21.9245L10.023 21.0585C10.3099 20.9267 10.64 20.9267 10.927 21.0585L12.3717 21.7221C12.3717 19.5093 12.3717 18.0492 12.3717 17.7883H4.89758C4.89758 18.0283 4.89758 19.1534 4.89758 20.8772C4.97129 20.8939 5.04348 20.918 5.11262 20.9498Z" fill="#A3CCEF"/>
<path d="M10.6224 35.1658H13.9179C14.0959 35.1658 14.2401 35.3101 14.2401 35.4881V38.7835C14.2401 38.9615 14.0959 39.1058 13.9179 39.1058H10.6224C10.4444 39.1058 10.3002 38.9615 10.3002 38.7835V35.4881C10.3002 35.3101 10.4444 35.1658 10.6224 35.1658Z" fill="#67AAE6"/>
<path d="M12.3723 35.1658H10.6224C10.4444 35.1658 10.3002 35.3101 10.3002 35.4881V38.7835C10.3002 38.9615 10.4444 39.1058 10.6224 39.1058H12.3723C12.3723 37.7956 12.3723 36.4745 12.3723 35.1658Z" fill="#4C98E0"/>
<path d="M10.6224 42.4044H13.9179C14.0959 42.4044 14.2401 42.5487 14.2401 42.7267V46.0221C14.2401 46.2001 14.0959 46.3444 13.9179 46.3444H10.6224C10.4444 46.3444 10.3002 46.2001 10.3002 46.0221V42.7267C10.3002 42.5487 10.4444 42.4044 10.6224 42.4044Z" fill="#67AAE6"/>
<path d="M12.3723 42.4044H10.6224C10.4444 42.4044 10.3002 42.5487 10.3002 42.7267V46.0221C10.3002 46.2001 10.4444 46.3444 10.6224 46.3444H12.3723C12.3723 45.0858 12.3723 43.763 12.3723 42.4044Z" fill="#4C98E0"/>
<path d="M13.9179 49.6405H10.6224C10.4444 49.6405 10.3002 49.7848 10.3002 49.9628V52.6229C10.6773 52.9516 11.0631 53.2706 11.4563 53.5805H13.9179C14.0959 53.5805 14.2401 53.4362 14.2401 53.2582V49.9628C14.2401 49.7849 14.0959 49.6405 13.9179 49.6405Z" fill="#67AAE6"/>
<path d="M12.3723 53.5806C12.3723 52.4804 12.3723 51.1436 12.3723 49.6405H10.6224C10.4444 49.6405 10.3002 49.7848 10.3002 49.9628V52.6218C10.3613 52.6751 10.4235 52.7272 10.4851 52.7801C10.5971 52.8762 10.709 52.9723 10.8225 53.0666C10.8886 53.1216 10.9555 53.1755 11.022 53.2298C11.1454 53.3307 11.2691 53.4312 11.3939 53.5301C11.4152 53.547 11.437 53.5636 11.4585 53.5805H12.3723V53.5806Z" fill="#4C98E0"/>
<path d="M17.7142 35.1658H21.0097C21.1877 35.1658 21.3319 35.3101 21.3319 35.4881V38.7835C21.3319 38.9615 21.1877 39.1058 21.0097 39.1058H17.7142C17.5362 39.1058 17.392 38.9615 17.392 38.7835V35.4881C17.392 35.3101 17.5362 35.1658 17.7142 35.1658Z" fill="#67AAE6"/>
<path d="M10.6224 27.9303H13.9179C14.0959 27.9303 14.2401 28.0746 14.2401 28.2526V31.548C14.2401 31.726 14.0959 31.8702 13.9179 31.8702H10.6224C10.4444 31.8702 10.3002 31.726 10.3002 31.548V28.2526C10.3002 28.0747 10.4444 27.9303 10.6224 27.9303Z" fill="#C5DEF3"/>
<path d="M12.3723 27.9303H10.6224C10.4444 27.9303 10.3002 28.0746 10.3002 28.2526V31.548C10.3002 31.726 10.4444 31.8702 10.6224 31.8702H12.3723C12.3723 30.5091 12.3723 29.186 12.3723 27.9303Z" fill="#A3CCEF"/>
<path d="M17.7142 27.9303H21.0097C21.1877 27.9303 21.3319 28.0746 21.3319 28.2526V31.548C21.3319 31.726 21.1877 31.8702 21.0097 31.8702H17.7142C17.5362 31.8702 17.392 31.726 17.392 31.548V28.2526C17.392 28.0747 17.5362 27.9303 17.7142 27.9303Z" fill="#A3CCEF"/>
<path d="M17.7142 42.4044H21.0097C21.1877 42.4044 21.3319 42.5487 21.3319 42.7267V46.0221C21.3319 46.2001 21.1877 46.3444 21.0097 46.3444H17.7142C17.5362 46.3444 17.392 46.2001 17.392 46.0221V42.7267C17.392 42.5487 17.5362 42.4044 17.7142 42.4044Z" fill="#67AAE6"/>
<path d="M17.7142 49.6405H21.0097C21.1877 49.6405 21.3319 49.7848 21.3319 49.9628V53.2582C21.3319 53.4362 21.1877 53.5805 21.0097 53.5805H17.7142C17.5362 53.5805 17.392 53.4362 17.392 53.2582V49.9628C17.392 49.7849 17.5362 49.6405 17.7142 49.6405Z" fill="#67AAE6"/>
<path d="M28.1015 31.8697H24.806C24.628 31.8697 24.4838 31.7255 24.4838 31.5475V28.252C24.4838 28.074 24.628 27.9297 24.806 27.9297H28.1015C28.2795 27.9297 28.4237 28.074 28.4237 28.252V31.5475C28.4238 31.7255 28.2795 31.8697 28.1015 31.8697Z" fill="#67AAE6"/>
<path d="M24.806 35.1658H28.1015C28.2795 35.1658 28.4237 35.3101 28.4237 35.4881V38.7835C28.4237 38.9615 28.2795 39.1058 28.1015 39.1058H24.806C24.628 39.1058 24.4838 38.9615 24.4838 38.7835V35.4881C24.4838 35.3101 24.628 35.1658 24.806 35.1658Z" fill="#67AAE6"/>
<path d="M24.806 42.4044H28.1015C28.2795 42.4044 28.4237 42.5487 28.4237 42.7267V46.0221C28.4237 46.2001 28.2795 46.3444 28.1015 46.3444H24.806C24.628 46.3444 24.4838 46.2001 24.4838 46.0221V42.7267C24.4838 42.5487 24.628 42.4044 24.806 42.4044Z" fill="#67AAE6"/>
<path d="M24.806 49.6405H28.1015C28.2795 49.6405 28.4237 49.7848 28.4237 49.9628V53.2582C28.4237 53.4362 28.2795 53.5805 28.1015 53.5805H24.806C24.628 53.5805 24.4838 53.4362 24.4838 53.2582V49.9628C24.4838 49.7849 24.628 49.6405 24.806 49.6405Z" fill="#67AAE6"/>
<path d="M35.194 31.8697H31.8986C31.7206 31.8697 31.5763 31.7255 31.5763 31.5475V28.252C31.5763 28.074 31.7206 27.9297 31.8986 27.9297H35.194C35.372 27.9297 35.5163 28.074 35.5163 28.252V31.5475C35.5163 31.7255 35.372 31.8697 35.194 31.8697Z" fill="#67AAE6"/>
<path d="M31.8986 35.1658H35.194C35.372 35.1658 35.5163 35.3101 35.5163 35.4881V38.7835C35.5163 38.9615 35.372 39.1058 35.194 39.1058H31.8986C31.7206 39.1058 31.5763 38.9615 31.5763 38.7835V35.4881C31.5762 35.3101 31.7206 35.1658 31.8986 35.1658Z" fill="#67AAE6"/>
<path d="M31.8986 42.4044H35.194C35.372 42.4044 35.5163 42.5487 35.5163 42.7267V46.0221C35.5163 46.2001 35.372 46.3444 35.194 46.3444H31.8986C31.7206 46.3444 31.5763 46.2001 31.5763 46.0221V42.7267C31.5762 42.5487 31.7206 42.4044 31.8986 42.4044Z" fill="#67AAE6"/>
<path d="M31.8977 49.6405H35.1931C35.3711 49.6405 35.5154 49.7848 35.5154 49.9628V53.2582C35.5154 53.4362 35.3711 53.5805 35.1931 53.5805H31.8977C31.7197 53.5805 31.5754 53.4362 31.5754 53.2582V49.9628C31.5753 49.7849 31.7197 49.6405 31.8977 49.6405Z" fill="#C5DEF3"/>
<path d="M42.2848 31.8697H38.9894C38.8114 31.8697 38.6671 31.7255 38.6671 31.5475V28.252C38.6671 28.074 38.8114 27.9297 38.9894 27.9297H42.2848C42.4628 27.9297 42.6071 28.074 42.6071 28.252V31.5475C42.6071 31.7255 42.4628 31.8697 42.2848 31.8697Z" fill="#67AAE6"/>
<path d="M38.9894 35.1658H42.2848C42.4628 35.1658 42.6071 35.3101 42.6071 35.4881V38.7835C42.6071 38.9615 42.4628 39.1058 42.2848 39.1058H38.9894C38.8114 39.1058 38.6671 38.9615 38.6671 38.7835V35.4881C38.667 35.3101 38.8114 35.1658 38.9894 35.1658Z" fill="#67AAE6"/>
<path d="M38.9894 42.4044H42.2848C42.4628 42.4044 42.6071 42.5487 42.6071 42.7267V46.0221C42.6071 46.2001 42.4628 46.3444 42.2848 46.3444H38.9894C38.8114 46.3444 38.6671 46.2001 38.6671 46.0221V42.7267C38.667 42.5487 38.8114 42.4044 38.9894 42.4044Z" fill="#67AAE6"/>
<path d="M49.3766 31.8697H46.0812C45.9032 31.8697 45.7589 31.7255 45.7589 31.5475V28.252C45.7589 28.074 45.9032 27.9297 46.0812 27.9297H49.3766C49.5546 27.9297 49.6989 28.074 49.6989 28.252V31.5475C49.6989 31.7255 49.5546 31.8697 49.3766 31.8697Z" fill="#67AAE6"/>
<path d="M46.0812 35.1658H49.3766C49.5546 35.1658 49.6989 35.3101 49.6989 35.4881V38.7835C49.6989 38.9615 49.5546 39.1058 49.3766 39.1058H46.0812C45.9032 39.1058 45.7589 38.9615 45.7589 38.7835V35.4881C45.7589 35.3101 45.9032 35.1658 46.0812 35.1658Z" fill="#67AAE6"/>
<path d="M46.0812 42.4044H49.3766C49.5546 42.4044 49.6989 42.5487 49.6989 42.7267V46.0221C49.6989 46.2001 49.5546 46.3444 49.3766 46.3444H46.0812C45.9032 46.3444 45.7589 46.2001 45.7589 46.0221V42.7267C45.7589 42.5487 45.9032 42.4044 46.0812 42.4044Z" fill="#67AAE6"/>
<path d="M38.9894 49.6406H42.2848C42.4628 49.6406 42.6071 49.7848 42.6071 49.9628V53.2583C42.6071 53.4363 42.4628 53.5805 42.2848 53.5805H38.9894C38.8114 53.5805 38.6671 53.4363 38.6671 53.2583V49.9628C38.667 49.7849 38.8114 49.6406 38.9894 49.6406Z" fill="#C5DEF3"/>
<path d="M46.0835 49.6406H49.3789C49.5569 49.6406 49.7012 49.7848 49.7012 49.9628V53.2583C49.7012 53.4363 49.5569 53.5805 49.3789 53.5805H46.0835C45.9055 53.5805 45.7612 53.4363 45.7612 53.2583V49.9628C45.7612 49.7849 45.9055 49.6406 46.0835 49.6406Z" fill="#C5DEF3"/>
<path d="M12.8944 11.1172C12.3637 11.1172 11.9335 10.687 11.9335 10.1563V2.34021C11.9335 1.80947 12.3637 1.37927 12.8944 1.37927C13.4252 1.37927 13.8553 1.80947 13.8553 2.34021V10.1561C13.8555 10.687 13.4253 11.1172 12.8944 11.1172Z" fill="#C5DEF3"/>
<path d="M21.4468 11.1172C20.916 11.1172 20.4858 10.687 20.4858 10.1563V2.34021C20.4858 1.80947 20.916 1.37927 21.4468 1.37927C21.9775 1.37927 22.4077 1.80947 22.4077 2.34021V10.1561C22.4077 10.687 21.9775 11.1172 21.4468 11.1172Z" fill="#C5DEF3"/>
<path d="M29.999 11.1172C29.4683 11.1172 29.0381 10.687 29.0381 10.1563V2.34021C29.0381 1.80947 29.4683 1.37927 29.999 1.37927C30.5298 1.37927 30.9599 1.80947 30.9599 2.34021V10.1561C30.9601 10.687 30.5298 11.1172 29.999 11.1172Z" fill="#C5DEF3"/>
<path d="M38.5537 11.1172C38.023 11.1172 37.5928 10.687 37.5928 10.1563V2.34021C37.5928 1.80947 38.023 1.37927 38.5537 1.37927C39.0845 1.37927 39.5146 1.80947 39.5146 2.34021V10.1561C39.5148 10.687 39.0843 11.1172 38.5537 11.1172Z" fill="#C5DEF3"/>
<path d="M47.1061 11.1172C46.5753 11.1172 46.1451 10.687 46.1451 10.1563V2.34021C46.1451 1.80947 46.5753 1.37927 47.1061 1.37927C47.6368 1.37927 48.067 1.80947 48.067 2.34021V10.1561C48.067 10.687 47.6368 11.1172 47.1061 11.1172Z" fill="#C5DEF3"/>
<path d="M55.0971 45.8808C54.9758 50.7185 51.9476 53.1582 51.0781 54.0709L50.077 55.0719C47.5352 57.5485 47.5349 57.8935 45.1492 59.1088C43.9589 59.6504 42.6638 59.956 41.3352 59.9952V59.9997C46.8932 59.9997 51.1113 59.9997 51.8192 59.9997C53.6326 59.9997 55.1029 58.5295 55.1029 56.716C55.1029 56.0335 55.1029 51.5641 55.1029 45.8807H55.0971V45.8808Z" fill="#A3CCEF"/>
<path d="M49.7006 56.7166C49.7006 56.5376 49.7006 56.0961 49.7006 55.4422C47.5442 57.5763 47.4093 57.9583 45.1492 59.1094C43.959 59.651 42.6638 59.9566 41.3352 59.9958V60.0003C46.8932 60.0003 51.1113 60.0003 51.8192 60.0003C52.018 60.0003 52.2126 59.9817 52.4018 59.9477C50.8664 59.6727 49.7006 58.3312 49.7006 56.7166Z" fill="#85BBEB"/>
<path d="M47.6959 50.253C46.4032 50.253 45.3554 51.3007 45.3554 52.5934V53.9037C45.3554 58.8336 41.3354 60.0005 41.3354 60.0005C42.7358 60.0005 44.1049 59.6972 45.3554 59.1279C47.696 57.9355 47.698 57.5942 50.1811 55.1746L51.1614 54.1943C52.0302 53.2823 55.1029 50.8145 55.1029 45.8813C55.103 45.8815 53.4271 50.253 47.6959 50.253Z" fill="#C5DEF3"/>
<path d="M48.9516 52.9404C48.9516 51.767 49.4277 50.7049 50.1974 49.9365C49.4651 50.1332 48.6361 50.2523 47.6959 50.2523C46.4032 50.2523 45.3554 51.3001 45.3554 52.5928V53.9031C45.3554 58.8329 41.3354 59.9999 41.3354 59.9999C42.7358 59.9999 44.1048 59.6965 45.3554 59.1273C47.5456 58.0117 47.6626 57.6622 49.8274 55.5214C49.2785 54.8062 48.9516 53.9119 48.9516 52.9404Z" fill="#A3CCEF"/>
</g>
<defs>
<clipPath id="clip0">
<rect width="60" height="60" fill="white"/>
</clipPath>
</defs>
</svg>
