<svg width="60" height="60" viewBox="0 0 60 60" fill="none" xmlns="http://www.w3.org/2000/svg">
<g style="mix-blend-mode:luminosity" clip-path="url(#clip0)">
<path d="M50.1766 20.1367H47.3739H39.5281H33.9228H26.077H20.4716H12.6258H9.82329H7.02063V26.0795C7.02063 26.3384 7.23051 26.5483 7.48938 26.5483H12.1572C12.4161 26.5483 12.6259 26.3384 12.6259 26.0795V25.4182C12.6259 23.8304 13.9132 22.543 15.5011 22.543H17.5964C19.1843 22.543 20.4716 23.8304 20.4716 25.4182V26.0795C20.4716 26.3384 20.6815 26.5483 20.9404 26.5483H25.6082C25.8671 26.5483 26.077 26.3384 26.077 26.0795V25.4182C26.077 23.8304 27.3643 22.543 28.9522 22.543H31.0475C32.6354 22.543 33.9227 23.8304 33.9227 25.4182V26.0795C33.9227 26.3384 34.1325 26.5483 34.3914 26.5483H39.0592C39.3181 26.5483 39.528 26.3384 39.528 26.0795V25.4182C39.528 23.8304 40.8153 22.543 42.4032 22.543H44.4985C46.0864 22.543 47.3737 23.8304 47.3737 25.4182V26.0795C47.3737 26.3384 47.5836 26.5483 47.8424 26.5483H50.6249H52.5105C52.7693 26.5483 52.9792 26.3384 52.9792 26.0795V20.1367H50.1766Z" fill="#EBEEF2"/>
<path d="M52.9792 20.1282H7.02063V21.3285H52.9792V20.1282Z" fill="#D1D6DE"/>
<path d="M3.76074 18.1586V16.5923H56.2394V18.1586C56.2394 19.2463 55.3577 20.1281 54.27 20.1281H5.7302C4.64246 20.1281 3.76074 19.2462 3.76074 18.1586Z" fill="#B5BCC6"/>
<path d="M52.9793 16.5923V18.1586C52.9793 19.2462 52.0976 20.1281 51.0099 20.1281H54.2698C55.3575 20.1281 56.2393 19.2463 56.2393 18.1586V16.5923H52.9793Z" fill="#989FA8"/>
<path d="M59.4442 12.9396L30.3231 1.42749C30.1155 1.34546 29.8846 1.34546 29.6769 1.42749L0.55582 12.9396C0.22043 13.0723 0 13.3963 0 13.757V16.5923C0 17.0776 0.393398 17.4712 0.878906 17.4712H59.1211C59.6066 17.4712 60 17.0776 60 16.5923V13.757C60 13.3963 59.7796 13.0723 59.4442 12.9396Z" fill="#EBEEF2"/>
<path d="M59.4442 12.9396L30.3231 1.42749C30.1156 1.34546 29.8846 1.34546 29.677 1.42749L27.5988 2.24897L55.9264 13.4474C56.2618 13.58 56.4822 13.9041 56.4822 14.2648V17.1C56.4822 17.2328 56.452 17.3582 56.3992 17.471H59.1212C59.6067 17.471 60.0001 17.0775 60.0001 16.5921V13.7569C60.0001 13.3963 59.7796 13.0723 59.4442 12.9396Z" fill="#D1D6DE"/>
<path d="M30.0001 12.7777C31.5752 12.7777 32.8521 11.5008 32.8521 9.92572C32.8521 8.35061 31.5752 7.07373 30.0001 7.07373C28.425 7.07373 27.1481 8.35061 27.1481 9.92572C27.1481 11.5008 28.425 12.7777 30.0001 12.7777Z" fill="#D1D6DE"/>
<path d="M32.2978 45.8782H27.7021C24.5451 45.8782 21.9858 48.4374 21.9858 51.5945V58.634H38.014V51.5945C38.014 48.4375 35.4548 45.8782 32.2978 45.8782Z" fill="#EBEEF2"/>
<path d="M32.2978 45.8782H30.573C33.202 45.8782 35.3332 48.4374 35.3332 51.5945V58.634H38.0139V51.5945C38.014 48.4375 35.4548 45.8782 32.2978 45.8782Z" fill="#D1D6DE"/>
<path d="M30.6824 45.8782H29.3176L27.5103 52.021C27.4612 52.188 27.5061 52.3685 27.6276 52.4931L29.6558 54.5702C29.8445 54.7636 30.1556 54.7636 30.3443 54.5702L32.3725 52.4931C32.4942 52.3685 32.5389 52.188 32.4898 52.021L30.6824 45.8782Z" fill="#444966"/>
<path d="M30 26.9465C26.3962 26.9465 23.4747 29.868 23.4747 33.4718V36.6177C23.4747 40.2214 26.3962 43.1429 30 43.1429C33.6037 43.1429 36.5252 40.2214 36.5252 36.6177V33.4718C36.5252 29.8679 33.6037 26.9465 30 26.9465Z" fill="#F9C295"/>
<path d="M30 26.9465C29.7207 26.9465 29.4463 26.9661 29.1763 27.0001C31.7755 27.4053 33.7864 30.1472 33.7864 33.4716V36.6175C33.7864 39.9421 31.7756 42.684 29.1763 43.0892C29.4463 43.1232 29.7207 43.1428 30 43.1428C33.6037 43.1428 36.5252 40.2213 36.5252 36.6175V33.4716C36.5252 29.8679 33.6037 26.9465 30 26.9465Z" fill="#E59F6A"/>
<path d="M34.2454 28.5195C34.2454 28.5193 34.2456 28.5191 34.2457 28.5187C34.2336 28.5084 34.2211 28.4988 34.2089 28.4885C34.1588 28.4463 34.1084 28.4046 34.0571 28.3638C34.0338 28.3451 34.0101 28.327 33.9866 28.3087C33.9396 28.2724 33.8922 28.2366 33.8442 28.2017C33.8162 28.1812 33.7882 28.161 33.7598 28.141C33.7159 28.11 33.6714 28.0796 33.6267 28.0496C33.5938 28.0276 33.5609 28.0057 33.5277 27.9841C33.4875 27.9582 33.4469 27.9331 33.4061 27.9082C33.3676 27.8845 33.3291 27.8608 33.2901 27.8378C33.2557 27.8177 33.2207 27.7983 33.1858 27.7788C33.1399 27.753 33.0941 27.7271 33.0475 27.7024C33.0236 27.6897 32.9991 27.6778 32.975 27.6653C32.0829 27.2066 31.0722 26.946 30 26.946C26.3962 26.946 23.4747 29.8675 23.4747 33.4713V34.0744C24.4356 34.4984 25.4973 34.7355 26.615 34.7355C28.9104 34.7355 30.9725 33.7415 32.3981 32.1619C33.2995 33.5508 34.7948 34.5187 36.5252 34.7029V33.4713C36.5252 31.4896 35.6404 29.7158 34.2454 28.5195Z" fill="#444966"/>
<path d="M34.2455 28.5195C34.2456 28.5192 34.2456 28.519 34.2457 28.5188C34.1882 28.4885 32.2502 26.6126 29.1763 26.9999C31.7755 27.4051 33.7864 30.147 33.7864 33.4715V33.6342C34.5693 34.2126 35.5058 34.5947 36.5252 34.7032C36.4124 34.0283 37.1115 30.9769 34.2455 28.5195Z" fill="#2E344C"/>
<path d="M45.5621 43.5789H42.1982C39.8874 43.5789 38.0142 45.4521 38.0142 47.7629V52.9157H49.7462V47.7629C49.7462 45.4521 47.8729 43.5789 45.5621 43.5789Z" fill="#5C9CEE"/>
<path d="M44.3796 43.5789H43.3804L42.0391 48.1379C42.0145 48.2214 42.037 48.3116 42.0978 48.3739L43.7079 50.0229C43.8023 50.1196 43.9577 50.1196 44.0521 50.0229L45.6622 48.3739C45.723 48.3117 45.7454 48.2215 45.7209 48.1379L44.3796 43.5789Z" fill="#444966"/>
<path d="M17.8018 43.5789H14.438C12.1271 43.5789 10.2539 45.4521 10.2539 47.7629V52.9157H21.9859V47.7629C21.9859 45.4521 20.1127 43.5789 17.8018 43.5789Z" fill="#5C9CEE"/>
<path d="M16.6194 43.5789H15.6203L14.279 48.1379C14.2544 48.2214 14.2769 48.3116 14.3377 48.3739L15.9477 50.0229C16.0422 50.1196 16.1976 50.1196 16.292 50.0229L17.9021 48.3739C17.9629 48.3117 17.9853 48.2215 17.9608 48.1379L16.6194 43.5789Z" fill="#444966"/>
<path d="M16.12 29.4675C13.4822 29.4675 11.3438 31.6058 11.3438 34.2437V36.5465C11.3438 39.1842 13.4822 41.3227 16.12 41.3227C18.7577 41.3227 20.8962 39.1844 20.8962 36.5465V34.2437C20.8961 31.6058 18.7577 29.4675 16.12 29.4675Z" fill="#F9C295"/>
<path d="M19.2274 30.619C19.2274 30.6188 19.2275 30.6187 19.2275 30.6184C19.2187 30.6108 19.2095 30.6038 19.2006 30.5963C19.164 30.5653 19.1271 30.5349 19.0895 30.505C19.0724 30.4914 19.0552 30.478 19.0378 30.4647C19.0035 30.4381 18.9687 30.4119 18.9336 30.3863C18.9131 30.3713 18.8926 30.3565 18.8719 30.3419C18.8396 30.3191 18.8072 30.2969 18.7745 30.2749C18.7505 30.2588 18.7263 30.2427 18.7019 30.227C18.6725 30.2081 18.6428 30.1897 18.613 30.1715C18.5848 30.1541 18.5566 30.1368 18.528 30.12C18.5028 30.1053 18.4772 30.0911 18.4518 30.0768C18.4181 30.0579 18.3846 30.0389 18.3505 30.0209C18.3329 30.0116 18.315 30.0028 18.2974 29.9938C17.6443 29.6581 16.9046 29.4673 16.1197 29.4673C13.4819 29.4673 11.3435 31.6056 11.3435 34.2435V34.6851C12.0469 34.9954 12.8239 35.1689 13.642 35.1689C15.3221 35.1689 16.8315 34.4414 17.875 33.2851C18.5347 34.3018 19.6293 35.0102 20.8958 35.145V34.2435C20.8961 32.7931 20.2485 31.4945 19.2274 30.619Z" fill="#F2DF33"/>
<path d="M43.88 29.4675C41.2422 29.4675 39.1038 31.6058 39.1038 34.2437V36.5465C39.1038 39.1842 41.2422 41.3227 43.88 41.3227C46.5177 41.3227 48.6562 39.1844 48.6562 36.5465V34.2437C48.6562 31.6058 46.5179 29.4675 43.88 29.4675Z" fill="#F9C295"/>
<path d="M46.9875 30.619C46.9875 30.6188 46.9877 30.6187 46.9877 30.6184C46.9789 30.6108 46.9696 30.6038 46.9607 30.5963C46.9241 30.5653 46.8872 30.5349 46.8496 30.505C46.8325 30.4914 46.8153 30.478 46.7979 30.4647C46.7636 30.4381 46.7288 30.4119 46.6938 30.3863C46.6732 30.3713 46.6527 30.3565 46.632 30.3419C46.5998 30.3191 46.5673 30.2969 46.5346 30.2749C46.5106 30.2588 46.4864 30.2427 46.4621 30.227C46.4327 30.2081 46.4029 30.1897 46.3731 30.1715C46.3449 30.1541 46.3168 30.1368 46.2882 30.12C46.263 30.1053 46.2373 30.0911 46.2119 30.0768C46.1782 30.0579 46.1447 30.0389 46.1106 30.0209C46.0931 30.0116 46.0751 30.0028 46.0575 29.9938C45.4045 29.6581 44.6648 29.4673 43.8798 29.4673C41.2421 29.4673 39.1036 31.6056 39.1036 34.2435V34.6851C39.807 34.9954 40.5841 35.1689 41.4022 35.1689C43.0823 35.1689 44.5916 34.4414 45.6351 33.2851C46.2948 34.3018 47.3894 35.0102 48.6559 35.145V34.2435C48.6562 32.7931 48.0086 31.4945 46.9875 30.619Z" fill="#F2DF33"/>
</g>
<defs>
<clipPath id="clip0">
<rect width="60" height="60" fill="white"/>
</clipPath>
</defs>
</svg>
