<svg width="60" height="60" viewBox="0 0 60 60" fill="none" xmlns="http://www.w3.org/2000/svg">
<g style="mix-blend-mode:luminosity" clip-path="url(#clip0)">
<path d="M57.9662 12.1005L57.8106 9.02101L54.7444 8.63299C54.5098 7.88835 54.1726 7.19106 53.7505 6.55551L55.3871 3.94891L53.0838 1.88221L50.6366 3.76143C49.9572 3.40865 49.2243 3.1459 48.4545 2.98922L47.7562 0L44.6544 0.156791L44.2614 3.2014C43.5112 3.4349 42.8086 3.77018 42.1682 4.18973L39.544 2.5668L37.4607 4.85514L39.3518 7.28336C38.9959 7.95812 38.7308 8.68597 38.5724 9.45039L35.5609 10.1456L35.7165 13.2251L38.7828 13.6132C39.0174 14.3578 39.3546 15.0551 39.7767 15.6906L38.1401 18.2972L40.4434 20.3639L42.8905 18.4847C43.57 18.8375 44.3029 19.1002 45.0727 19.2569L45.7707 22.2464L48.8725 22.0896L49.2655 19.045C50.0157 18.8115 50.7184 18.4762 51.3587 18.0567L53.9829 19.6796L56.0662 17.3912L54.1751 14.963C54.531 14.2883 54.7961 13.5604 54.9545 12.796L57.9662 12.1005ZM46.9796 15.3996C44.6005 15.5198 42.5752 13.7026 42.4559 11.3408C42.3365 8.97894 44.1684 6.96678 46.5473 6.84655C48.9263 6.72632 50.9516 8.54357 51.071 10.9054C51.1904 13.2672 49.3585 15.2794 46.9796 15.3996Z" fill="#7974E3"/>
<path d="M21.8912 33.5066L41.3341 42.0313L49.9912 22.2863L46.4173 13.1116L33.346 7.38062L21.8912 33.5066Z" fill="#F0F0FF"/>
<path d="M45.1963 22.2865L37.3124 40.2681L41.334 42.0314L49.9911 22.2865L47.7438 16.5171L45.1963 22.2865Z" fill="#E8E8FF"/>
<path d="M46.4172 13.1116L43.6097 19.4676L49.991 22.2863L46.4172 13.1116Z" fill="#CFCFFF"/>
<path d="M40.3348 31.3926H55.7018V46.7105H40.3348V31.3926Z" fill="#96E1FF"/>
<path d="M59.4805 42.6929L55.7017 46.7107V31.3926L59.4805 27.3748V42.6929Z" fill="#FDF486"/>
<path d="M55.7017 31.3926H40.3348L44.1135 27.3748H59.4805L55.7017 31.3926Z" fill="#FD6DC3"/>
<path d="M45.9562 57.3571L47.7319 55.5798L46.2903 53.5149C46.612 52.9661 46.849 52.3812 47.0023 51.7788L49.4719 51.343L49.4616 48.8215L46.9884 48.3699C46.8302 47.7665 46.5884 47.1801 46.2623 46.6293L47.687 44.5735L45.8969 42.7849L43.8423 44.2116C43.2911 43.8859 42.7045 43.6446 42.1009 43.487L41.6472 41.0141L39.1257 41.0061L38.6922 43.4761C38.0899 43.6298 37.5052 43.8674 36.9567 44.1896L34.8905 42.7499L33.1148 44.5272L34.5564 46.5921C34.2346 47.1409 33.9977 47.7258 33.8443 48.3282L31.3748 48.764L31.3851 51.2855L33.8582 51.7371C34.0165 52.3405 34.2583 52.9269 34.5844 53.4777L33.1596 55.5335L34.9499 57.3221L37.0045 55.8954C37.5557 56.2211 38.1423 56.4624 38.7459 56.62L39.1996 59.0929L41.7211 59.1009L42.1546 56.631C42.7569 56.4772 43.3416 56.2396 43.8901 55.9174L45.9562 57.3571ZM38.1923 52.2866C36.9461 51.0416 36.938 49.0294 38.174 47.7923C39.41 46.5552 41.4221 46.5615 42.6683 47.8065C43.9143 49.0515 43.9226 51.0637 42.6866 52.3008C41.4505 53.5379 39.4384 53.5316 38.1923 52.2866Z" fill="#7974E3"/>
<path d="M12.2038 9.44888C12.4338 9.44888 12.6638 9.36113 12.8395 9.18564C13.1906 8.83454 13.1907 8.26527 12.8396 7.91429L9.774 4.8481C9.42289 4.49688 8.85363 4.497 8.50264 4.84798C8.15154 5.19909 8.15142 5.76835 8.50252 6.11934L11.5681 9.1854C11.7435 9.36113 11.9736 9.44888 12.2038 9.44888Z" fill="#FDF05B"/>
<path d="M5.75394 23.6128H1.41856C0.922058 23.6128 0.519531 24.0152 0.519531 24.5118C0.519531 25.0085 0.922058 25.4109 1.41856 25.4109H5.75394C6.25045 25.4109 6.65298 25.0085 6.65298 24.5118C6.65298 24.0152 6.25045 23.6128 5.75394 23.6128Z" fill="#FDF05B"/>
<path d="M13.1136 39.7247C12.7625 39.3737 12.1933 39.3736 11.8423 39.7248L8.77682 42.7909C8.42571 43.142 8.42583 43.7112 8.77694 44.0622C8.95243 44.2377 9.18258 44.3255 9.41261 44.3255C9.64265 44.3255 9.8728 44.2377 10.0484 44.0621L13.1137 40.996C13.4649 40.6449 13.4647 40.0757 13.1136 39.7247Z" fill="#FDF05B"/>
<path d="M27.9642 6.02441C27.8174 6.02441 27.6703 6.02561 27.5227 6.02921C17.7263 6.26104 9.78027 14.3568 9.68773 24.1922C9.62108 31.2664 13.5449 37.4253 19.3364 40.5443V43.6268C19.3364 44.8854 20.3529 45.9057 21.6068 45.9057H27.9642V6.02441Z" fill="#FDF486"/>
<path d="M27.9643 45.9058H21.6069V50.9329C21.6069 53.191 23.4375 55.0216 25.6956 55.0216H27.9643V45.9058Z" fill="#CFCFFF"/>
<path d="M28.0493 60C27.5528 60 27.1503 59.5976 27.1503 59.101V1.20616C27.1503 0.709536 27.5528 0.307129 28.0493 0.307129C28.5458 0.307129 28.9483 0.709536 28.9483 1.20616V59.101C28.9483 59.5976 28.5458 60 28.0493 60Z" fill="#FFD600"/>
<path d="M47.0023 51.7788L49.4719 51.343L49.4616 48.8215L46.9884 48.3699C46.8302 47.7665 46.5884 47.1801 46.2622 46.6293L47.687 44.5735L45.8967 42.7849L43.8421 44.2115C43.3123 43.8984 42.7495 43.6642 42.1705 43.5064C44.1381 45.111 45.3953 47.5536 45.3953 50.2905C45.3953 52.6603 44.4517 54.8085 42.9218 56.3844C43.2538 56.2558 43.5778 56.1008 43.8898 55.9175L45.9561 57.3572L47.7317 55.5799L46.2901 53.515C46.612 52.9661 46.8491 52.3813 47.0023 51.7788Z" fill="#6B64E8"/>
</g>
<defs>
<clipPath id="clip0">
<rect width="60" height="60" fill="white"/>
</clipPath>
</defs>
</svg>
