<svg width="60" height="60" viewBox="0 0 60 60" fill="none" xmlns="http://www.w3.org/2000/svg">
<g style="mix-blend-mode:luminosity">
<path d="M50.8383 44.9389C50.8383 46.853 50.0215 48.6468 48.5384 49.9896C48.3092 50.1971 48.0216 50.2995 47.7349 50.2995C47.4084 50.2995 47.0832 50.1668 46.8468 49.9057C46.4028 49.4153 46.4405 48.658 46.9308 48.2141C47.9061 47.3311 48.4431 46.168 48.4431 44.9389C48.4431 43.7098 47.9061 42.5466 46.9308 41.6636L46.6025 41.3664C45.1193 40.0235 44.3025 38.2299 44.3025 36.3155C44.3026 34.4014 45.1193 32.6076 46.6024 31.2648C47.0928 30.8211 47.8501 30.8585 48.294 31.3488C48.7379 31.8392 48.7003 32.5964 48.21 33.0404C47.2348 33.9233 46.6978 35.0864 46.6977 36.3155C46.6977 37.5447 47.2347 38.7078 48.21 39.5908L48.5383 39.8881C50.0215 41.2309 50.8383 43.0247 50.8383 44.9389Z" fill="#015AAD"/>
<path d="M59.2214 17.4253C59.2214 24.4032 53.5646 31.1378 46.5866 31.1378C39.6087 31.1378 33.9519 24.4032 33.9519 17.4253C33.9519 10.4473 39.6087 4.79053 46.5866 4.79053C53.5646 4.79053 59.2214 10.4473 59.2214 17.4253Z" fill="#FCB30B"/>
<path d="M49.5551 30.7244C49.949 31.0126 50.1794 31.3611 50.1794 31.7366C50.1794 32.7287 48.5709 33.533 46.5866 33.533C44.6023 33.533 42.9938 32.7287 42.9938 31.7366C42.9938 31.3611 43.2242 31.0126 43.6181 30.7244C38.0724 29.159 33.9519 23.3808 33.9519 17.4252C33.9519 12.7058 36.5395 8.59073 40.3732 6.42139C39.3349 8.25612 38.7423 10.3762 38.7423 12.6348C38.7423 19.6128 44.3991 26.3474 51.3771 26.3474C53.4436 26.3474 55.3943 25.7566 57.1166 24.7438C55.3797 27.5999 52.696 29.8378 49.5551 30.7244Z" fill="#FC9302"/>
<path d="M53.6734 9.87564C55.3103 11.5125 56.0686 13.4082 55.3671 14.1098C54.6655 14.8113 52.7698 14.053 51.1329 12.4161C49.4961 10.7792 48.7377 8.88354 49.4393 8.18199C50.1407 7.48043 52.0365 8.23863 53.6734 9.87564Z" fill="#FDED32"/>
<path d="M44.97 17.9642V25.1498C44.97 25.8113 44.4338 26.3474 43.7724 26.3474H14.1744C13.513 26.3474 12.9768 25.8113 12.9768 25.1498V17.9642C12.9768 17.3028 13.513 16.7666 14.1744 16.7666H43.7724C44.4338 16.7666 44.97 17.3028 44.97 17.9642Z" fill="#E43950"/>
<path d="M31.5911 20.2567C31.5911 20.8591 31.1028 21.3473 30.5005 21.3473H27.4466C26.8442 21.3473 26.3559 20.8591 26.3559 20.2567C26.3559 19.6543 26.8442 19.166 27.4466 19.166H30.5005C31.1027 19.166 31.5911 19.6543 31.5911 20.2567ZM34.4268 19.166C33.8244 19.166 33.3361 19.6543 33.3361 20.2567C33.3361 20.8591 33.8244 21.3473 34.4268 21.3473C35.0292 21.3473 35.5175 20.8591 35.5175 20.2567C35.5175 19.6543 35.0292 19.166 34.4268 19.166ZM23.5201 19.166C22.9177 19.166 22.4294 19.6543 22.4294 20.2567C22.4294 20.8591 22.9177 21.3473 23.5201 21.3473C24.1225 21.3473 24.6108 20.8591 24.6108 20.2567C24.6108 19.6543 24.1225 19.166 23.5201 19.166Z" fill="#962437"/>
<path d="M12.9768 23.165H44.97V55.899C40.5873 58.504 35.4683 59.9999 29.9999 59.9999C23.6533 59.9999 17.7773 57.9848 12.9768 54.5597V23.165Z" fill="#BBE0FB"/>
<path d="M18.0667 23.165H44.97V53.2049C41.8827 54.3088 38.5565 54.9101 35.0898 54.9101C29.2141 54.9101 23.7419 53.183 19.1529 50.2087C18.4737 49.7685 18.0667 49.0111 18.0667 48.2018V23.165Z" fill="#FFF5F5"/>
<path d="M34.4171 39.8476C34.4171 41.0503 33.4422 42.0251 32.2396 42.0251C31.037 42.0251 30.0621 41.0502 30.0621 39.8476C30.0621 38.6451 31.037 37.6702 32.2396 37.6702C33.4422 37.6702 34.4171 38.6451 34.4171 39.8476ZM38.7721 37.6702C37.5694 37.6702 36.5946 38.645 36.5946 39.8476C36.5946 41.0503 37.5694 42.0251 38.7721 42.0251C39.9747 42.0251 40.9495 41.0502 40.9495 39.8476C40.9495 38.6451 39.9746 37.6702 38.7721 37.6702ZM19.1748 50.7349C17.9722 50.7349 16.9973 51.7098 16.9973 52.9124C16.9973 54.1151 17.9722 55.0899 19.1748 55.0899C20.3774 55.0899 21.3523 54.1151 21.3523 52.9124C21.3523 51.7098 20.3774 50.7349 19.1748 50.7349Z" fill="#FD73C4"/>
<path d="M33.5843 28.5287H24.3627C23.8667 28.5287 23.4645 28.1266 23.4645 27.6305V27.2456C23.4645 26.7496 23.8667 26.3474 24.3627 26.3474H33.5843C34.0803 26.3474 34.4825 26.7496 34.4825 27.2456V27.6305C34.4825 28.1266 34.0803 28.5287 33.5843 28.5287ZM19.1748 31.1378C17.9722 31.1378 16.9973 32.1127 16.9973 33.3153C16.9973 34.5179 17.9722 35.4928 19.1748 35.4928C20.3774 35.4928 21.3523 34.5178 21.3523 33.3153C21.3523 32.1128 20.3774 31.1378 19.1748 31.1378ZM27.8847 33.3153C27.8847 34.5179 26.9099 35.4928 25.7073 35.4928C24.5046 35.4928 23.5298 34.5178 23.5298 33.3153C23.5298 32.1128 24.5046 31.1378 25.7073 31.1378C26.9098 31.1378 27.8847 32.1127 27.8847 33.3153ZM34.4171 33.3153C34.4171 34.5179 33.4422 35.4928 32.2396 35.4928C31.037 35.4928 30.0621 34.5178 30.0621 33.3153C30.0621 32.1128 31.0371 31.1378 32.2396 31.1378C33.4421 31.1378 34.4171 32.1127 34.4171 33.3153ZM36.5946 33.3153C36.5946 32.1127 37.5694 31.1378 38.7721 31.1378C39.9747 31.1378 40.9495 32.1127 40.9495 33.3153C40.9495 34.5179 39.9747 35.4928 38.7721 35.4928C37.5694 35.4928 36.5946 34.5178 36.5946 33.3153ZM21.3523 39.8476C21.3523 41.0503 20.3774 42.0251 19.1748 42.0251C17.9722 42.0251 16.9973 41.0502 16.9973 39.8476C16.9973 38.6451 17.9722 37.6702 19.1748 37.6702C20.3774 37.6702 21.3523 38.6451 21.3523 39.8476ZM27.8847 39.8476C27.8847 41.0503 26.9099 42.0251 25.7073 42.0251C24.5046 42.0251 23.5298 41.0502 23.5298 39.8476C23.5298 38.6451 24.5046 37.6702 25.7073 37.6702C26.9098 37.6702 27.8847 38.6451 27.8847 39.8476ZM21.3523 46.38C21.3523 47.5826 20.3774 48.5575 19.1748 48.5575C17.9722 48.5575 16.9973 47.5826 16.9973 46.38C16.9973 45.1775 17.9722 44.2025 19.1748 44.2025C20.3774 44.2025 21.3523 45.1775 21.3523 46.38ZM27.8847 46.38C27.8847 47.5826 26.9099 48.5575 25.7073 48.5575C24.5046 48.5575 23.5298 47.5826 23.5298 46.38C23.5298 45.1775 24.5046 44.2025 25.7073 44.2025C26.9098 44.2026 27.8847 45.1775 27.8847 46.38ZM34.4171 46.38C34.4171 47.5826 33.4422 48.5575 32.2396 48.5575C31.037 48.5575 30.0621 47.5826 30.0621 46.38C30.0621 45.1775 31.037 44.2025 32.2396 44.2025C33.4422 44.2025 34.4171 45.1775 34.4171 46.38ZM40.9495 46.38C40.9495 47.5826 39.9747 48.5575 38.7721 48.5575C37.5694 48.5575 36.5946 47.5826 36.5946 46.38C36.5946 45.1775 37.5694 44.2025 38.7721 44.2025C39.9746 44.2026 40.9495 45.1775 40.9495 46.38ZM27.8847 52.9124C27.8847 54.1151 26.9099 55.0899 25.7073 55.0899C24.5046 55.0899 23.5298 54.1151 23.5298 52.9124C23.5298 51.7098 24.5046 50.7349 25.7073 50.7349C26.9098 50.7349 27.8847 51.7098 27.8847 52.9124Z" fill="#B1C9EB"/>
<path d="M17.5448 40.1483C17.5448 42.0625 16.7281 43.8562 15.245 45.1991C15.0157 45.4065 14.7282 45.5089 14.4415 45.5089C14.1149 45.5089 13.7897 45.3762 13.5533 45.1152C13.1094 44.6247 13.147 43.8675 13.6373 43.4235C14.6126 42.5405 15.1496 41.3774 15.1496 40.1483C15.1496 38.9192 14.6126 37.7561 13.6373 36.8731L13.309 36.5759C11.8258 35.233 11.009 33.4393 11.009 31.525C11.0092 29.6108 11.8258 27.8171 13.3089 26.4743C13.7993 26.0306 14.5567 26.068 15.0005 26.5583C15.4445 27.0487 15.4069 27.8059 14.9166 28.2499C13.9414 29.1328 13.4044 30.2959 13.4042 31.525C13.4042 32.7542 13.9412 33.9173 14.9166 34.8003L15.2448 35.0975C16.7281 36.4404 17.5448 38.2342 17.5448 40.1483Z" fill="#968DCA"/>
<path d="M25.9282 12.6347C25.9282 19.6127 20.2714 26.3473 13.2934 26.3473C6.31546 26.3473 0.658691 19.6127 0.658691 12.6347C0.658691 5.65677 6.31546 0 13.2934 0C20.2714 0 25.9282 5.65677 25.9282 12.6347Z" fill="#FD73C4"/>
<path d="M16.2619 25.9339C16.6558 26.2221 16.8862 26.5706 16.8862 26.9461C16.8862 27.9382 15.2777 28.7425 13.2934 28.7425C11.3091 28.7425 9.70061 27.9382 9.70061 26.9461C9.70061 26.5706 9.93103 26.2221 10.3249 25.9339C4.77917 24.3685 0.658691 18.5903 0.658691 12.6347C0.658691 7.91529 3.24624 3.8002 7.08001 1.63086C6.04169 3.46559 5.44911 5.58571 5.44911 7.84427C5.44911 14.8222 11.1059 21.5568 18.0838 21.5568C20.1504 21.5568 22.1011 20.9661 23.8234 19.9533C22.0865 22.8094 19.4028 25.0473 16.2619 25.9339Z" fill="#FD2AA7"/>
<path d="M20.3802 5.08511C22.0171 6.722 22.7754 8.61769 22.0739 9.31924C21.3723 10.0208 19.4766 9.26248 17.8397 7.62559C16.2028 5.9887 15.4445 4.09302 16.1461 3.39146C16.8476 2.6899 18.7433 3.44811 20.3802 5.08511Z" fill="#FD92D2"/>
</g>
</svg>
