<svg width="60" height="60" viewBox="0 0 60 60" fill="none" xmlns="http://www.w3.org/2000/svg">
<g style="mix-blend-mode:luminosity">
<path d="M15.9375 7.61836L17.1094 29.6988H8.90625V7.61836C8.90625 6.64688 9.3 5.76797 9.93633 5.13164C10.5727 4.49531 11.4516 4.10156 12.4219 4.10156C14.3637 4.10156 15.9375 5.67656 15.9375 7.61836Z" fill="#997AB8"/>
<path d="M12.4219 4.10203C13.5545 4.10203 14.4727 3.18376 14.4727 2.05102C14.4727 0.918271 13.5545 0 12.4219 0C11.2893 0 10.3711 0.918271 10.3711 2.05102C10.3711 3.18376 11.2893 4.10203 12.4219 4.10203Z" fill="#FFC796"/>
<path d="M22.9688 7.61836V29.6988H15.9375V7.61836C15.9375 6.64688 16.3312 5.76797 16.9676 5.13164C17.6039 4.49531 18.4828 4.10156 19.4531 4.10156C21.3949 4.10156 22.9688 5.67656 22.9688 7.61836Z" fill="#B77E5A"/>
<path d="M19.4531 4.10203C20.5857 4.10203 21.5039 3.18376 21.5039 2.05102C21.5039 0.918271 20.5857 0 19.4531 0C18.3205 0 17.4023 0.918271 17.4023 2.05102C17.4023 3.18376 18.3205 4.10203 19.4531 4.10203Z" fill="#FFC796"/>
<path d="M30 7.61836L31.1719 29.6988H21.7969L22.9688 7.61836C22.9688 6.64688 23.3625 5.76797 23.9988 5.13164C24.6352 4.49531 25.5141 4.10156 26.4844 4.10156C28.4262 4.10156 30 5.67656 30 7.61836Z" fill="#F7775B"/>
<path d="M26.4844 4.10203C27.617 4.10203 28.5352 3.18376 28.5352 2.05102C28.5352 0.918271 27.617 0 26.4844 0C25.3518 0 24.4336 0.918271 24.4336 2.05102C24.4336 3.18376 25.3518 4.10203 26.4844 4.10203Z" fill="#DF9F7A"/>
<path d="M37.0312 7.61836V29.6988H30V7.61836C30 6.64688 30.3938 5.76797 31.0301 5.13164C31.6664 4.49531 32.5453 4.10156 33.5156 4.10156C35.4574 4.10156 37.0312 5.67656 37.0312 7.61836Z" fill="#FFC54B"/>
<path d="M33.5156 4.10203C34.6482 4.10203 35.5664 3.18376 35.5664 2.05102C35.5664 0.918271 34.6482 0 33.5156 0C32.383 0 31.4648 0.918271 31.4648 2.05102C31.4648 3.18376 32.383 4.10203 33.5156 4.10203Z" fill="#FFC796"/>
<path d="M44.0625 7.61836L45.2344 29.6988H35.8594L37.0312 7.61836C37.0312 6.64688 37.425 5.76797 38.0613 5.13164C38.6977 4.49531 39.5766 4.10156 40.5469 4.10156C42.4887 4.10156 44.0625 5.67656 44.0625 7.61836Z" fill="#FFE26F"/>
<path d="M40.5469 4.10203C41.6795 4.10203 42.5977 3.18376 42.5977 2.05102C42.5977 0.918271 41.6795 0 40.5469 0C39.4143 0 38.4961 0.918271 38.4961 2.05102C38.4961 3.18376 39.4143 4.10203 40.5469 4.10203Z" fill="#FFC796"/>
<path d="M51.0938 7.61836V29.6988H44.0625V7.61836C44.0625 6.64688 44.4563 5.76797 45.0926 5.13164C45.559 4.66523 46.1555 4.32891 46.8223 4.18477C47.066 4.12969 47.3191 4.10156 47.5781 4.10156C49.5199 4.10156 51.0938 5.67656 51.0938 7.61836Z" fill="#D1E16F"/>
<path d="M47.5781 4.10203C48.7107 4.10203 49.6289 3.18376 49.6289 2.05102C49.6289 0.918271 48.7107 0 47.5781 0C46.4455 0 45.5273 0.918271 45.5273 2.05102C45.5273 3.18376 46.4455 4.10203 47.5781 4.10203Z" fill="#DF9F7A"/>
<path d="M8.90625 9.25781H15.9375V29.6988H8.90625V9.25781Z" fill="#6957A1"/>
<path d="M22.9688 9.25781H30V29.6988H22.9688V9.25781Z" fill="#F25853"/>
<path d="M37.0312 9.25781H44.0625V29.6988H37.0312V9.25781Z" fill="#FFC54B"/>
<path d="M15.9375 9.25781H22.9688V29.6988H15.9375V9.25781Z" fill="#98654C"/>
<path d="M30 9.25781H37.0312V29.6988H30V9.25781Z" fill="#FEAC38"/>
<path d="M47.5781 4.10156C47.3191 4.10156 47.066 4.12969 46.8223 4.18477C47.2734 4.30078 47.6766 4.5375 47.9953 4.85625C48.4617 5.32266 48.75 5.96719 48.75 6.67969C48.75 8.10352 47.5957 9.25781 46.1719 9.25781H44.0625V29.6988H51.0938V7.61836C51.0938 5.67656 49.5199 4.10156 47.5781 4.10156Z" fill="#9CCC4B"/>
<path d="M54.6094 19.9524V30.6059H46.4062L47.5781 19.9524C47.5781 18.9821 47.9719 18.1032 48.6082 17.4668C48.8484 17.2266 49.1238 17.0204 49.425 16.8575C49.9219 16.5891 50.4902 16.4368 51.0938 16.4368C53.0355 16.4368 54.6094 18.0106 54.6094 19.9524Z" fill="#997AB8"/>
<path d="M51.0938 16.4365C52.2264 16.4365 53.1445 15.5182 53.1445 14.3855C53.1445 13.2527 52.2264 12.3345 51.0938 12.3345C49.9611 12.3345 49.043 13.2527 49.043 14.3855C49.043 15.5182 49.9611 16.4365 51.0938 16.4365Z" fill="#DF9F7A"/>
<path d="M26.4844 19.9524L27.6562 30.6059H18.2812L19.4531 19.9524C19.4531 18.9821 19.8469 18.1032 20.4832 17.4668C21.1195 16.8305 21.9984 16.4368 22.9688 16.4368C24.9105 16.4368 26.4844 18.0106 26.4844 19.9524Z" fill="#E6F8FC"/>
<path d="M22.9688 16.4365C24.1014 16.4365 25.0195 15.5182 25.0195 14.3855C25.0195 13.2527 24.1014 12.3345 22.9688 12.3345C21.8361 12.3345 20.918 13.2527 20.918 14.3855C20.918 15.5182 21.8361 16.4365 22.9688 16.4365Z" fill="#FFC796"/>
<path d="M12.4219 19.9524L13.5938 30.6059H5.39062V19.9524C5.39062 18.9821 5.78438 18.1032 6.4207 17.4668C7.05703 16.8305 7.93594 16.4368 8.90625 16.4368C10.848 16.4368 12.4219 18.0106 12.4219 19.9524Z" fill="#FFE26F"/>
<path d="M8.90625 16.4365C10.0389 16.4365 10.957 15.5182 10.957 14.3855C10.957 13.2527 10.0389 12.3345 8.90625 12.3345C7.77363 12.3345 6.85547 13.2527 6.85547 14.3855C6.85547 15.5182 7.77363 16.4365 8.90625 16.4365Z" fill="#FFC796"/>
<path d="M40.5469 19.9524L41.7188 30.6059H32.3438L33.5156 19.9524C33.5156 18.9821 33.9094 18.1032 34.5457 17.4668C35.182 16.8305 36.0609 16.4368 37.0312 16.4368C38.973 16.4368 40.5469 18.0106 40.5469 19.9524Z" fill="#3A4B56"/>
<path d="M37.0312 16.4365C38.1639 16.4365 39.082 15.5182 39.082 14.3855C39.082 13.2527 38.1639 12.3345 37.0312 12.3345C35.8986 12.3345 34.9805 13.2527 34.9805 14.3855C34.9805 15.5182 35.8986 16.4365 37.0312 16.4365Z" fill="#DF9F7A"/>
<path d="M19.4531 19.9524V30.6059H12.4219V19.9524C12.4219 18.9821 12.8156 18.1032 13.452 17.4668C14.0883 16.8305 14.9672 16.4368 15.9375 16.4368C17.8793 16.4368 19.4531 18.0106 19.4531 19.9524Z" fill="#D1E16F"/>
<path d="M15.9375 16.4365C17.0701 16.4365 17.9883 15.5182 17.9883 14.3855C17.9883 13.2527 17.0701 12.3345 15.9375 12.3345C14.8049 12.3345 13.8867 13.2527 13.8867 14.3855C13.8867 15.5182 14.8049 16.4365 15.9375 16.4365Z" fill="#DF9F7A"/>
<path d="M33.5156 19.9524V30.6059H26.4844V19.9524C26.4844 18.9821 26.8781 18.1032 27.5145 17.4668C28.1508 16.8305 29.0297 16.4368 30 16.4368C31.9418 16.4368 33.5156 18.0106 33.5156 19.9524Z" fill="#B77E5A"/>
<path d="M30 16.4365C31.1326 16.4365 32.0508 15.5182 32.0508 14.3855C32.0508 13.2527 31.1326 12.3345 30 12.3345C28.8674 12.3345 27.9492 13.2527 27.9492 14.3855C27.9492 15.5182 28.8674 16.4365 30 16.4365Z" fill="#FFC796"/>
<path d="M47.5781 19.9524V30.6059H40.5469V19.9524C40.5469 18.9821 40.9406 18.1032 41.577 17.4668C42.2133 16.8305 43.0922 16.4368 44.0625 16.4368C46.0043 16.4368 47.5781 18.0106 47.5781 19.9524Z" fill="#F7775B"/>
<path d="M44.0625 16.4365C45.1951 16.4365 46.1133 15.5182 46.1133 14.3855C46.1133 13.2527 45.1951 12.3345 44.0625 12.3345C42.9299 12.3345 42.0117 13.2527 42.0117 14.3855C42.0117 15.5182 42.9299 16.4365 44.0625 16.4365Z" fill="#FFC796"/>
<path d="M12.4219 26.8792H19.4531V30.6057H12.4219V26.8792Z" fill="#9CCC4B"/>
<path d="M26.4844 26.8792H33.5156V30.6057H26.4844V26.8792Z" fill="#98654C"/>
<path d="M40.5469 26.8792H47.5781V30.6057H40.5469V26.8792Z" fill="#F25853"/>
<path d="M5.39062 26.8792H12.4219V30.6057H5.39062V26.8792Z" fill="#FFC54B"/>
<path d="M19.4531 26.8792H26.4844V30.6057H19.4531V26.8792Z" fill="#D0EDF5"/>
<path d="M33.5156 26.8792H40.5469V30.6057H33.5156V26.8792Z" fill="#26363F"/>
<path d="M54.6094 19.9524V30.6059H47.5781V26.8793H49.0008C50.3039 26.8793 51.3586 25.8235 51.3586 24.5215V20.0672C51.3586 18.675 50.5746 17.4657 49.425 16.8575C49.9219 16.5891 50.4902 16.4368 51.0938 16.4368C53.0355 16.4368 54.6094 18.0106 54.6094 19.9524Z" fill="#6957A1"/>
<path d="M56.5174 30.6057C56.5174 39.3467 52.294 47.1022 45.776 51.942L36.4327 55.1858L34.6104 54.4217L6.20767 42.5202C5.1061 40.3311 4.29985 37.9698 3.83813 35.4854L5.63696 30.6057H56.5174Z" fill="#7AC2ED"/>
<path d="M56.5174 30.6057C56.5174 39.3467 52.2939 47.1022 45.776 51.942L36.4326 55.1858L34.6104 54.4217C44.7846 51.2858 52.1803 41.8077 52.1803 30.6057H56.5174Z" fill="#68A6DC"/>
<path d="M10.0501 30.6057C9.11499 32.8241 7.41226 34.7553 3.83804 35.4854C3.5439 33.9034 3.39038 32.2721 3.39038 30.6057H10.0501Z" fill="#D1E16F"/>
<path d="M4.72945 58.2422H0.879023C0.393516 58.2422 0 58.6357 0 59.1211C0 59.6065 0.393633 60 0.879023 60H4.72945C5.21496 60 5.60848 59.6065 5.60848 59.1211C5.60848 58.6357 5.21496 58.2422 4.72945 58.2422Z" fill="#D0EDF5"/>
<path d="M16.8019 58.2422H8.84924C8.36373 58.2422 7.97021 58.6357 7.97021 59.1211C7.97021 59.6065 8.36385 60 8.84924 60H16.8019C17.2874 60 17.681 59.6065 17.681 59.1211C17.6811 58.6357 17.2874 58.2422 16.8019 58.2422Z" fill="#D0EDF5"/>
<path d="M3.22326 56.25H10.5899C11.0754 56.25 11.4689 55.8565 11.4689 55.3711C11.4689 54.8857 11.0753 54.4922 10.5899 54.4922H3.22326C2.73775 54.4922 2.34424 54.8857 2.34424 55.3711C2.34424 55.8565 2.73775 56.25 3.22326 56.25Z" fill="#D0EDF5"/>
<path d="M48.6273 58.2422H41.2606C40.7751 58.2422 40.3816 58.6357 40.3816 59.1211C40.3816 59.6065 40.7752 60 41.2606 60H48.6273C49.1128 60 49.5063 59.6065 49.5063 59.1211C49.5063 58.6357 49.1126 58.2422 48.6273 58.2422Z" fill="#D0EDF5"/>
<path d="M59.1099 54.4919H48.2269C47.7414 54.4919 47.3479 54.8855 47.3479 55.3708C47.3479 55.8562 47.7415 56.2498 48.2269 56.2498H59.1099C59.5954 56.2498 59.9889 55.8562 59.9889 55.3708C59.989 54.8855 59.5954 54.4919 59.1099 54.4919Z" fill="#D0EDF5"/>
<path d="M34.7065 37.7249C33.8698 39.6385 27.8252 39.2014 26.3475 37.7249C25.2037 36.5811 24.6741 32.6823 25.3877 30.6057H30.2428C32.8971 32.5229 35.4717 35.9741 34.7065 37.7249Z" fill="#D1E16F"/>
<path d="M45.7755 51.9416C41.3568 55.223 35.8819 57.1649 29.9535 57.1649C23.4882 57.1649 17.5632 54.8562 12.9581 51.017C10.1639 48.6896 7.85719 45.7984 6.20801 42.5206C16.6737 42.5206 10.2048 35.4856 15.0573 35.4856C21.5413 35.4856 20.7045 46.0106 24.2466 47.8388C27.7453 49.6459 30.3591 45.8606 35.3334 45.8606C39.1123 45.8606 39.1533 49.1536 41.7307 50.894C42.6554 51.5174 43.9072 51.9416 45.7755 51.9416Z" fill="#D1E16F"/>
<path d="M41.7306 50.894C42.6553 51.5175 43.9071 51.9417 45.7754 51.9417C41.3566 55.2231 35.8818 57.165 29.9534 57.165C23.4881 57.165 17.5631 54.8563 12.958 51.0171C17.0052 53.8578 21.9362 55.5242 27.2576 55.5242C32.6539 55.5244 37.6506 53.8086 41.7306 50.894Z" fill="#9CCC4B"/>
<path d="M59.9889 43.4011C59.9889 44.6419 58.9818 45.6488 57.7409 45.6488H45.7937C44.1012 45.6488 42.7295 44.2763 42.7295 42.5841C42.7295 40.8927 44.1013 39.5202 45.7937 39.5202C46.4988 39.5202 47.1484 39.7586 47.6664 40.159C48.0571 37.9785 49.9637 36.323 52.2565 36.323C53.3003 36.323 54.2653 36.6661 55.043 37.2457C56.1818 38.0959 56.9201 39.4549 56.9201 40.9859C56.9201 41.0952 56.9164 41.2044 56.9093 41.312C57.1664 41.21 57.4468 41.1535 57.7407 41.1535C58.9818 41.1535 59.9889 42.1595 59.9889 43.4011Z" fill="#E6F8FC"/>
<path d="M59.9889 43.401C59.9889 44.6418 58.9818 45.6487 57.7409 45.6487H45.7937C44.1012 45.6487 42.7295 44.2762 42.7295 42.584C42.7295 43.4251 43.7698 44.1831 44.6101 44.1831H51.2575C53.7367 44.159 55.7382 42.1415 55.7382 39.6572C55.7382 38.7703 55.4838 37.9435 55.043 37.2456C56.1818 38.0958 56.9201 39.4548 56.9201 40.9858C56.9201 41.0951 56.9164 41.2043 56.9093 41.3119C57.1664 41.2098 57.4468 41.1533 57.7407 41.1533C58.9818 41.1533 59.9889 42.1594 59.9889 43.401Z" fill="#D0EDF5"/>
<path d="M59.1211 29.6985H0.878906C0.393516 29.6985 0 30.092 0 30.5774C0 31.0628 0.393516 31.4563 0.878906 31.4563H59.1211C59.6065 31.4563 60 31.0628 60 30.5774C60 30.092 59.6065 29.6985 59.1211 29.6985Z" fill="#3A4B56"/>
<path d="M26.3521 43.7986C26.3485 43.7729 26.3638 43.7459 26.3942 43.7178L26.3521 43.7986Z" fill="#B77E5A"/>
</g>
</svg>
