<svg width="20" height="18" viewBox="0 0 20 18" fill="none" xmlns="http://www.w3.org/2000/svg">
<path d="M4.93994 1.99996C4.93968 2.5304 4.72871 3.039 4.35345 3.41388C3.97819 3.78877 3.46938 3.99923 2.93894 3.99896C2.40851 3.9987 1.89991 3.78773 1.52502 3.41247C1.15014 3.03721 0.939676 2.5284 0.939942 1.99796C0.940207 1.46753 1.15117 0.958927 1.52644 0.584042C1.9017 0.209157 2.41051 -0.00130256 2.94094 -0.00103735C3.47137 -0.000772131 3.97998 0.210196 4.35486 0.585456C4.72975 0.960716 4.94021 1.46953 4.93994 1.99996ZM4.99994 5.47996H0.999942V18H4.99994V5.47996ZM11.3199 5.47996H7.33994V18H11.2799V11.43C11.2799 7.76996 16.0499 7.42996 16.0499 11.43V18H19.9999V10.07C19.9999 3.89996 12.9399 4.12996 11.2799 7.15996L11.3199 5.47996Z" fill="#0077B5"/>
</svg>
