<svg width="60" height="60" viewBox="0 0 60 60" fill="none" xmlns="http://www.w3.org/2000/svg">
<g clip-path="url(#clip0)">
<path d="M28.7927 2.65009C12.9776 2.65009 0.15686 15.4708 0.15686 31.2859C0.15686 32.9752 0.304365 34.6299 0.58488 36.2388L24.1899 59.5517C25.6885 59.7938 27.2255 59.9217 28.7926 59.9217C44.6077 59.9217 57.4284 47.1011 57.4284 31.286C57.4284 15.4709 44.6078 2.65009 28.7927 2.65009Z" fill="#185ADB"/>
<path d="M36.9634 13.9209C40.7859 13.9209 43.8846 10.8222 43.8846 6.99968C43.8846 3.17718 40.7859 0.0784302 36.9634 0.0784302C33.1409 0.0784302 30.0421 3.17718 30.0421 6.99968C30.0421 10.8222 33.1409 13.9209 36.9634 13.9209Z" fill="#1F8130"/>
<path d="M39.9925 13.2238C39.9427 13.1826 39.8866 13.1474 39.8218 13.1248C38 12.4905 38.1501 11.0567 38.3587 10.3389C38.4275 10.1021 38.338 9.85123 38.1374 9.70781C37.4234 9.19774 37.6487 8.40108 37.8036 8.03886C37.8596 7.90772 37.866 7.7608 37.8175 7.62674L36.5497 4.121C36.4973 3.97642 36.3872 3.86176 36.2479 3.79642C34.6781 3.05995 34.9188 1.3155 35.0899 0.612806C35.1123 0.52082 35.1097 0.426614 35.0864 0.338135C32.1763 1.15654 30.0421 3.82798 30.0421 6.99967C30.0421 10.8222 33.1409 13.9209 36.9634 13.9209C38.0498 13.9209 39.0775 13.67 39.9925 13.2238Z" fill="#166E2E"/>
<path d="M36.9633 3.86444C34.9084 3.86444 33.1156 4.98603 32.1634 6.65031C32.0395 6.86689 32.0395 7.13244 32.1634 7.34902C33.1156 9.0133 34.9086 10.1349 36.9633 10.1349C39.0182 10.1349 40.8111 9.0133 41.7634 7.34902C41.8873 7.13244 41.8873 6.86689 41.7634 6.65031C40.8111 4.98603 39.0182 3.86444 36.9633 3.86444Z" fill="#E9EFFF"/>
<path d="M38.1374 9.70796C37.4234 9.19789 37.6487 8.40122 37.8036 8.03901C37.8596 7.90787 37.866 7.76095 37.8175 7.62688L36.5497 4.12114C36.5179 4.03313 36.4627 3.95809 36.3946 3.89673C34.5812 4.08245 33.0265 5.14198 32.1634 6.65046C32.0395 6.86704 32.0395 7.13259 32.1634 7.34917C33.1156 9.01345 34.9084 10.135 36.9633 10.135C37.4378 10.135 37.8973 10.0727 38.3367 9.96031C38.2959 9.86166 38.2289 9.77329 38.1374 9.70796Z" fill="#BEC8F7"/>
<path d="M58.9342 18.3643C59.8134 14.645 57.511 10.9172 53.7917 10.0381C50.0724 9.15888 46.3446 11.4612 45.4654 15.1805C44.5862 18.8998 46.8886 22.6276 50.6079 23.5068C54.3272 24.386 58.055 22.0836 58.9342 18.3643Z" fill="#DB1F2C"/>
<path d="M54.4867 19.1137C54.4681 18.8837 54.2985 18.6974 54.0753 18.6387C53.8872 18.5893 53.7639 18.4729 53.7015 18.399C53.6751 18.3677 53.6534 18.3333 53.6356 18.2965C53.5267 18.0732 52.9 16.8922 51.4761 16.1274C50.3767 15.537 50.4736 14.7109 50.6335 14.2642C50.7049 14.0646 50.6513 13.8431 50.4996 13.6951C49.1471 12.3748 49.7916 10.9581 50.1712 10.3629C50.2207 10.2852 50.248 10.1982 50.2551 10.1102C47.3752 10.9479 45.2698 13.6049 45.2698 16.7551C45.2698 20.5775 48.3685 23.6763 52.191 23.6763C54.2535 23.6763 56.1041 22.7732 57.3721 21.342C54.9885 21.4439 54.5518 19.9201 54.4867 19.1137Z" fill="#BC1631"/>
<path d="M55.9067 15.1608C55.2808 14.0145 53.8115 13.6351 52.672 14.2736L52.3936 14.4296C52.2679 14.5001 52.1147 14.5001 51.9891 14.4296L51.6602 14.2454C50.513 13.6026 49.0615 14.0357 48.4541 15.202H48.454C47.8809 16.3024 48.2666 17.6641 49.3396 18.2871C50.2445 18.8126 51.1023 19.471 51.8232 20.2574C52.0203 20.4724 52.3624 20.4724 52.5594 20.2573C53.2804 19.471 54.1379 18.8127 55.043 18.2871C56.1292 17.6561 56.5112 16.2682 55.9067 15.1608Z" fill="#E9EFFF"/>
<path d="M49.3395 18.2869C50.2444 18.8124 51.1022 19.4708 51.8231 20.2573C52.0201 20.4722 52.3622 20.4722 52.5593 20.2572C53.0798 19.6893 53.6721 19.1894 54.3017 18.757C54.2376 18.7022 54.1605 18.6611 54.0754 18.6387C53.8873 18.5893 53.764 18.4728 53.7016 18.399C53.6752 18.3677 53.6535 18.3333 53.6357 18.2965C53.5268 18.0732 52.9001 16.8921 51.4762 16.1274C50.3768 15.537 50.4737 14.7109 50.6336 14.2642C50.6702 14.162 50.6735 14.0543 50.6482 13.9534C49.765 13.9058 48.891 14.3625 48.454 15.2017H48.4539C47.8808 16.3022 48.2665 17.6639 49.3395 18.2869Z" fill="#BEC8F7"/>
<path d="M57.9627 39.4276C60.6652 36.7251 60.6652 32.3435 57.9627 29.641C55.2602 26.9385 50.8785 26.9385 48.176 29.641C45.4735 32.3435 45.4735 36.7251 48.176 39.4276C50.8785 42.1301 55.2602 42.1301 57.9627 39.4276Z" fill="#FFA705"/>
<path d="M54.4402 38.6168L52.7827 31.1327C50.3432 30.224 51.3259 27.8423 51.329 27.8345C48.3538 28.6096 46.1575 31.3143 46.1575 34.5322C46.1575 38.3547 49.2562 41.4535 53.0787 41.4535C53.9813 41.4535 54.8426 41.2789 55.6332 40.9647C53.915 40.3906 54.4402 38.6168 54.4402 38.6168Z" fill="#DB8703"/>
<path d="M49.9696 31.1328H56.1878C56.7372 31.1328 57.1869 31.5825 57.1869 32.1319V36.5511C57.1869 37.1006 56.7372 37.5502 56.1878 37.5502H55.2984C55.1993 37.5502 55.1067 37.6001 55.0524 37.6831L54.4399 38.6168C54.2911 38.8438 53.9584 38.8438 53.8096 38.6168L53.1971 37.6831C53.1428 37.6002 53.0503 37.5502 52.9511 37.5502H49.9693C49.4199 37.5502 48.9702 37.1005 48.9702 36.5511V32.1319C48.9704 31.5823 49.4201 31.1328 49.9696 31.1328Z" fill="#E9EFFF"/>
<path d="M51.7836 36.551V32.1319C51.7836 31.5823 52.2332 31.1328 52.7827 31.1328H49.9696C49.4201 31.1328 48.9705 31.5825 48.9705 32.1319V36.5511C48.9705 37.1005 49.4201 37.5502 49.9696 37.5502H52.7827C52.2332 37.5502 51.7836 37.1005 51.7836 36.551Z" fill="#BEC8F7"/>
<path d="M35.2115 4.14812C34.8448 4.56141 34.6218 5.10502 34.6218 5.701C34.6218 6.99418 35.6701 8.04248 36.9633 8.04248C38.2565 8.04248 39.3048 6.99418 39.3048 5.701C39.3048 5.10502 39.0818 4.56153 38.7151 4.14823C38.1646 3.96438 37.5757 3.86456 36.9633 3.86456C36.351 3.86445 35.762 3.96426 35.2115 4.14812Z" fill="#47477F"/>
<path d="M17.3056 47.0134C16.7134 47.3553 15.9578 47.2602 15.4682 46.782L15.3623 46.6785L13.0339 48.0228L17.6575 52.8662C17.7593 52.8169 17.8605 52.7652 17.9601 52.7077C20.1415 51.4483 20.8888 48.659 19.6294 46.4778C19.5108 46.2723 19.3785 46.0795 19.2345 45.8999L17.3056 47.0134Z" fill="#D3DCFB"/>
<path d="M15.4682 46.782L15.3623 46.6784L13.0339 48.0228L17.6575 52.8661C17.7595 52.8169 17.8606 52.7651 17.9601 52.7076C18.7006 52.2801 19.2753 51.676 19.6629 50.9795C16.4284 50.1788 17.3057 47.0134 17.3057 47.0134C16.7134 47.3554 15.9578 47.2601 15.4682 46.782Z" fill="#BEC8F7"/>
<path d="M13.1619 47.8737L7.92725 50.8959C12.187 55.4265 17.9048 58.5698 24.3321 59.5751L13.1619 47.8737Z" fill="#E9EFFF"/>
<path d="M17.8398 52.7741L13.1619 47.8736L7.92725 50.8958C9.75223 52.8369 11.8455 54.5222 14.1467 55.8948C14.0213 52.3232 17.8398 52.7741 17.8398 52.7741Z" fill="#D3DCFB"/>
<path d="M4.88307 33.9049L3.28296 31.1334C2.7972 30.292 1.72143 30.0038 0.879997 30.4895C0.0385676 30.9753 -0.249662 32.051 0.236097 32.8925L1.8362 35.664L4.88307 33.9049Z" fill="#E9EFFF"/>
<path d="M3.44534 31.4148C3.45153 31.4784 3.45504 31.5428 3.45504 31.6079C3.45504 32.6858 2.58123 33.5596 1.50335 33.5596C1.10993 33.5596 0.744324 33.4421 0.437744 33.2419L1.83611 35.664L4.88298 33.905L3.44534 31.4148Z" fill="#D3DCFB"/>
<path d="M8.11078 51.0908L15.6615 46.7313C15.551 46.6232 15.452 46.4998 15.3709 46.3593L7.4594 32.6565C7.37828 32.516 7.32078 32.3685 7.28256 32.2186L0.561646 36.099C1.5376 41.8653 4.23593 47.0455 8.11078 51.0908Z" fill="#FF7186"/>
<path d="M11.0349 39.6107L11.0406 38.8591L7.45952 32.6565C7.3784 32.516 7.3209 32.3685 7.28268 32.2186L0.561646 36.099C1.03303 38.8839 1.9073 41.5315 3.12065 43.9812C3.27937 42.4772 4.28525 41.9876 4.28525 41.9876C4.28525 41.9876 6.33068 40.7896 8.1116 39.8096C9.8924 38.8298 11.0349 39.6107 11.0349 39.6107Z" fill="#FF4155"/>
<path d="M24.3367 42.3767C29.664 40.2525 35.3774 39.9462 40.6927 41.244L24.5499 13.2841C23.0161 18.5361 19.8943 23.331 15.3911 26.8824C15.7227 27.0243 16.0136 27.2689 16.2079 27.6053L24.1191 41.308C24.3133 41.6444 24.3796 42.0185 24.3367 42.3767Z" fill="#D3DCFB"/>
<path d="M30.1959 23.0632L24.5498 13.2841C23.0161 18.5361 19.8942 23.3309 15.391 26.8824C15.7226 27.0243 16.0135 27.2689 16.2078 27.6053L20.0605 34.2784C24.5701 31.0158 28.0455 27.0861 30.1959 23.0632Z" fill="#BEC8F7"/>
<path d="M23.7119 43.54L17.4033 47.1822C16.5762 47.6598 15.5186 47.3764 15.041 46.5492L7.12969 32.8465C6.65212 32.0193 6.93555 30.9616 7.76272 30.4842L14.0713 26.8419C14.8984 26.3643 15.9561 26.6478 16.4336 27.4748L24.3448 41.1775C24.8224 42.0048 24.5389 43.0624 23.7119 43.54Z" fill="#FF4155"/>
<path d="M16.4335 27.475C15.9559 26.6478 14.8984 26.3645 14.0712 26.8421L7.76267 30.4843C6.9355 30.9619 6.65218 32.0196 7.12964 32.8466L11.0349 39.6108C11.4808 37.6398 13.1161 38.5255 13.1161 38.5255L18.3582 35.499C18.6004 33.6041 20.2722 34.1242 20.2722 34.1242L16.4335 27.475Z" fill="#E80054"/>
<path d="M10.6459 33.3686C10.3429 33.3686 10.0482 33.2114 9.8859 32.9302C9.64384 32.5109 9.78748 31.9748 10.2067 31.7327L13.9306 29.5828C14.3498 29.3406 14.886 29.4844 15.128 29.9036C15.3701 30.3229 15.2264 30.859 14.8072 31.1011L11.0833 33.251C10.9453 33.3307 10.7945 33.3686 10.6459 33.3686Z" fill="#FF7186"/>
<path d="M12.261 36.1663C11.958 36.1663 11.6634 36.009 11.501 35.7278C11.2589 35.3086 11.4026 34.7724 11.8218 34.5304L15.5457 32.3805C15.9649 32.1383 16.5011 32.282 16.7431 32.7013C16.9852 33.1206 16.8416 33.6567 16.4223 33.8988L12.6985 36.0487C12.5604 36.1284 12.4096 36.1663 12.261 36.1663Z" fill="#FF7186"/>
<path d="M13.8761 38.9639C13.5731 38.9639 13.2785 38.8067 13.1161 38.5254C12.8741 38.1062 13.0177 37.5701 13.437 37.328L17.1608 35.1781C17.5801 34.9359 18.1162 35.0797 18.3583 35.4989C18.6003 35.9182 18.4567 36.4543 18.0374 36.6964L14.3136 38.8463C14.1755 38.926 14.0248 38.9639 13.8761 38.9639Z" fill="#FF7186"/>
<path d="M15.4913 41.7613C15.1884 41.7613 14.8937 41.6041 14.7314 41.3229C14.4893 40.9037 14.6329 40.3675 15.0522 40.1255L18.776 37.9755C19.1953 37.7334 19.7314 37.8771 19.9735 38.2964C20.2156 38.7156 20.0719 39.2518 19.6527 39.4938L15.9288 41.6437C15.7908 41.7235 15.64 41.7613 15.4913 41.7613Z" fill="#FF7186"/>
<path d="M17.1066 44.5589C16.8036 44.5589 16.5089 44.4017 16.3466 44.1205C16.1045 43.7013 16.2482 43.1651 16.6674 42.9231L20.3913 40.7732C20.8105 40.531 21.3467 40.6747 21.5887 41.094C21.8308 41.5132 21.6871 42.0494 21.2679 42.2914L17.544 44.4414C17.406 44.5211 17.2552 44.5589 17.1066 44.5589Z" fill="#FF7186"/>
<path d="M42.9519 42.1067C42.1106 42.5925 41.0347 42.3043 40.549 41.4628L24.2884 13.2989C23.8027 12.4574 24.091 11.3816 24.9323 10.8959C25.7737 10.4101 26.8495 10.6984 27.3353 11.5398L43.5957 39.7038C44.0816 40.5452 43.7934 41.621 42.9519 42.1067Z" fill="#E9EFFF"/>
<path d="M31.072 21.3902C31.6776 21.0406 32.3862 21.0342 32.9754 21.3085L27.3354 11.5397C26.8497 10.6982 25.7738 10.41 24.9325 10.8958C24.0911 11.3815 23.8028 12.4573 24.2886 13.2987L30.0436 23.2666C30.0117 22.5232 30.383 21.7881 31.072 21.3902Z" fill="#D3DCFB"/>
<path d="M49.455 51.1107C47.6369 48.3214 44.4552 45.1108 40.6215 45.5672C34.0646 46.3476 17.8174 47.2143 30.137 59.8893C37.7202 59.5386 44.5328 56.2393 49.455 51.1107Z" fill="#467BE2"/>
<path d="M2.36951 20.2316C4.54514 32.6406 20.2113 12.8379 21.0419 8.44717C21.4144 6.47795 20.4543 5.15439 19.2388 4.28479C11.6166 6.98183 5.47668 12.8134 2.36951 20.2316Z" fill="#467BE2"/>
<path d="M37.6476 6.20737C38.1197 6.20737 38.5024 5.82469 38.5024 5.35262C38.5024 4.88055 38.1197 4.49786 37.6476 4.49786C37.1755 4.49786 36.7928 4.88055 36.7928 5.35262C36.7928 5.82469 37.1755 6.20737 37.6476 6.20737Z" fill="#5F5F9B"/>
</g>
<defs>
<clipPath id="clip0">
<rect width="60" height="60" fill="white"/>
</clipPath>
</defs>
</svg>
