<svg width="14" height="14" viewBox="0 0 14 14" fill="none" xmlns="http://www.w3.org/2000/svg">
<path d="M6.33301 0.333344C9.64501 0.333344 12.333 3.02134 12.333 6.33334C12.333 9.64534 9.64501 12.3333 6.33301 12.3333C3.02101 12.3333 0.333008 9.64534 0.333008 6.33334C0.333008 3.02134 3.02101 0.333344 6.33301 0.333344ZM6.33301 11C8.91101 11 10.9997 8.91134 10.9997 6.33334C10.9997 3.75468 8.91101 1.66668 6.33301 1.66668C3.75434 1.66668 1.66634 3.75468 1.66634 6.33334C1.66634 8.91134 3.75434 11 6.33301 11ZM11.9897 11.0473L13.8757 12.9327L12.9323 13.876L11.047 11.99L11.9897 11.0473Z" fill="#304254"/>
</svg>
