<svg width="98" height="88" viewBox="0 0 98 88" fill="none" xmlns="http://www.w3.org/2000/svg">
<path d="M41.4415 0.309554C21.0618 -0.58787 0.855758 16.7468 0.519849 40.4276C0.197122 63.1705 18.4073 81.9364 41.3229 81.9942C64.3709 82.0524 82.6073 63.2306 82.3485 40.5474C82.0783 16.8696 61.8958 -0.580446 41.4415 0.309554Z" fill="#EFEFEF"/>
<path d="M71.6368 60.8927C71.6411 60.057 71.5238 59.3682 70.8394 58.7912C69.9694 58.0574 70.2848 56.6729 70.5738 56.3262C72.0361 54.5717 71.7048 52.8994 70.3517 51.2698C67.1392 47.3959 70.7218 44.8798 68.0417 44.9289C67.1483 44.9454 66.4576 44.5904 65.6954 44.0895C64.3532 43.208 59.1109 46.2168 57.1776 44.2612C56.143 43.2148 55.2095 42.0677 54.2491 40.9491C53.3733 39.9292 53.3761 37.4063 54.182 36.3076C54.3942 36.018 54.4192 35.5912 54.5303 35.2273C54.4261 35.2574 54.3218 35.2876 54.2176 35.3177C53.3017 33.8991 52.1692 33.9059 57.1364 30.707C57.7542 30.3089 57.9924 29.8471 57.9711 29.1136C57.9362 27.9179 58.8939 26.7607 60.0418 26.4979V25.571C59.4845 25.473 59.0247 25.095 58.8658 24.303C58.1741 20.8595 59.9962 21.0198 63.5203 21.5368C61.5232 16.5265 64.6476 19.4835 66.137 16.5556C66.8883 15.078 68.6211 15.4606 70.2571 15.6907C70.1503 14.9898 70.068 14.4495 69.9726 13.8233C69.3703 14.0029 68.8705 14.1517 68.6564 14.2156C67.9244 13.61 67.2759 13.2145 66.838 12.6544C66.607 12.3586 66.5474 11.5224 66.7477 11.3683C67.2721 10.9645 67.8479 10.5836 68.4524 10.3053C60.9423 3.66362 51.2259 -0.115166 41.4414 0.31044C35.34 0.0418033 29.2586 1.41786 23.717 4.09847C23.8365 4.11241 23.9524 4.11741 24.077 4.14362C24.4141 4.21453 24.7548 4.51211 24.9871 4.79332C25.9874 6.00423 26.9517 6.10514 28.1753 5.15832C28.4397 4.95362 28.8845 4.98226 29.5017 4.84756C28.5503 6.40089 28.4817 6.43817 26.062 6.90074C26.0788 7.26014 26.0962 7.63544 26.12 8.14635C27.1677 7.98999 28.2424 8.57074 29.0412 7.48135C29.1467 7.33756 29.5242 7.41923 29.7521 7.33347C30.108 7.19938 30.4435 7.0115 30.7877 6.8462C30.5838 6.53392 30.3801 6.22165 30.1008 5.79362C30.3373 4.79574 31.3751 4.53226 33.6695 5.09271C33.4929 5.90605 31.9559 6.16938 32.6744 7.26362C32.8774 7.57286 33.5401 7.57998 34.0594 7.74741C34.367 6.11286 33.8944 5.32271 35.9211 4.93271C38.2682 4.48105 39.2167 4.66938 41.9573 6.17195C43.0765 6.78559 41.7353 7.85529 43.6582 8.28953C43.4073 10.2474 41.5368 9.08195 41.1886 10.0321C40.7742 11.1618 40.4651 10.818 36.9044 10.0254C36.8991 9.93105 36.8941 9.8368 36.8889 9.74241C37.8123 9.22892 38.7358 8.71559 39.6753 8.19317C38.748 7.13438 36.6158 6.99529 35.5718 7.81059C35.0032 8.25468 34.372 8.61847 33.6295 9.11089C33.6495 9.16832 33.7442 9.44074 33.8417 9.72074C31.7676 10.9247 32.468 10.8124 31.2426 9.57695C29.4902 9.83968 27.9959 11.0845 26.3561 12.0054C25.8718 12.2774 26.0297 13.4432 26.6611 13.8577C29.1036 15.4617 29.5811 13.2179 29.5811 16.9288C29.6805 16.9983 29.7797 17.0676 29.8791 17.1371C30.1879 16.85 30.6356 16.6189 30.778 16.265C31.1336 15.3818 31.6882 14.8274 32.6329 14.688C34.3335 14.437 33.1745 12.7632 34.0415 11.2347C34.4071 10.5904 35.1067 10.4617 35.9279 10.6992C37.7932 11.2385 37.8086 11.1848 38.0024 13.2341C38.9229 12.8791 39.7868 12.5457 40.7364 12.1794C41.1068 13.4662 40.5714 14.6403 42.2089 15.3939C42.8838 15.7044 42.6448 16.9859 41.9395 17.3123C41.6527 17.445 41.36 17.565 40.7973 17.8092C42.9221 18.9706 42.3203 18.506 42.933 19.7218C41.7723 19.9854 42.2514 20.0518 40.9101 19.6326C39.6608 19.2418 39.6439 19.1721 40.3105 18.0903C40.4141 17.922 40.3485 17.6491 40.3611 17.4247C40.1502 17.4682 39.9108 17.4618 39.7335 17.5638C37.217 19.01 37.9161 17.0624 36.3194 17.2518C36.0729 17.2812 35.7832 17.5597 35.6677 17.8015C35.6167 17.9085 35.9167 18.2416 36.1171 18.3929C36.307 18.536 36.575 18.5754 37.0267 18.74C36.6706 19.0117 36.3264 19.408 36.2029 19.3483C34.6732 18.6076 34.3559 20.1185 33.5658 20.7247C33.2939 20.9332 33.107 21.3 32.8105 21.4212C30.7553 22.2604 28.2906 25.1136 28.2915 25.3039C28.298 26.6968 27.1092 27.0209 25.6773 28.0404C23.6462 29.486 24.2227 30.2303 24.2227 31.9157C22.6321 31.707 22.4903 31.5541 22.2662 29.813C19.9495 29.8618 17.5751 29.298 15.4065 30.7577C14.5247 31.3512 13.1477 33.9282 13.3561 34.9476C13.7129 36.6936 15.1044 36.8548 16.5044 36.2201C17.4339 35.7985 18.2379 35.0998 19.1215 34.5094C20.1156 35.6412 18.8586 36.387 18.7689 37.2932C20.3605 38.2971 20.8518 37.0021 21.1973 40.0359C21.265 40.6307 20.9042 41.6206 21.8855 41.717C23.0845 41.8347 24.3592 42.8348 25.503 41.3126C26.9667 39.3648 28.455 39.385 30.1248 41.1514C30.7071 41.767 32.4868 41.5759 33.3827 40.5877C34 41.2665 34.702 41.857 35.1661 42.5968C35.6955 43.4409 36.2497 43.8859 37.3098 43.8144C40.3377 43.6101 39.4432 47.3039 40.0574 47.6473C41.0948 48.227 42.3068 48.5357 43.4827 48.8103C44.1671 48.9703 44.9168 48.8967 45.6336 48.8592C46.2861 48.8251 46.6477 49.102 47.0332 49.6198C47.4308 50.1544 48.0048 50.6074 48.5914 50.9362C49.0733 51.2062 49.3601 51.4294 49.1506 51.9909C49.0141 52.3562 48.9594 52.8226 48.6998 53.06C47.082 54.5404 46.8992 56.4886 46.8438 58.482C46.7932 60.3 46.2045 61.4391 43.5023 61.5257C42.3348 61.5633 41.5138 62.2556 41.9048 63.308C42.6018 65.1839 41.8003 66.4509 40.6336 67.7079C38.6541 69.8406 39.9488 70.5742 35.4195 71.9118C35.1417 71.9939 34.8944 72.18 34.6329 72.3182C35.547 73.1209 36.0148 73.148 35.2883 74.0386C33.6529 76.0442 36.0562 74.7741 36.3302 76.3336C36.4285 76.892 35.3217 78.1033 36.6297 78.9417C36.9294 79.1338 37.3302 79.3603 37.4124 79.6489C37.5033 79.9683 37.2894 80.6948 37.1958 80.697C36.1892 80.7197 35.2118 80.9206 34.2361 80.1721C32.6 78.917 31.5292 77.2801 30.7142 75.4898C29.9685 73.852 31.3912 72.0698 29.8874 70.6173C28.182 68.9697 30.8165 66.9491 28.9939 65.877C28.6561 65.6782 29.4698 59.1704 28.2535 58.3268C26.865 57.3639 24.9895 56.6159 24.9433 56.2942C24.5505 53.566 20.9559 52.047 21.6874 50.1682C22.0642 49.2001 21.1139 47.3026 23.4279 46.1559C24.6667 45.5421 23.9132 44.4271 23.8103 43.556C23.7826 43.3203 22.9688 43.005 22.5271 43.022C18.7388 43.1677 19.8514 39.7507 16.0892 39.4374C15.3267 39.3738 14.8889 39.0503 15.0774 38.015C12.8914 38.4707 14.1358 38.2671 11.8347 38.072C8.11061 37.7556 8.96364 34.2436 8.64576 33.6038C7.9247 32.1524 6.66121 31.5883 6.40576 29.0438C6.37651 28.7526 6.09682 28.4862 5.78621 28.2862C5.52985 29.4871 5.575 30.5659 6.2997 31.5217C7.31939 32.8665 7.06939 32.6842 7.02045 34.0574C6.51515 33.9006 5.80682 33.902 5.5397 33.5594C2.51939 29.6851 5.15152 28.223 3.27424 27.3067C3.13652 27.2394 3.05712 27.1797 2.94667 27.1171C1.4553 31.241 0.586819 35.7056 0.519849 40.4285C0.197122 63.1712 18.4073 81.9373 41.3229 81.9951C54.3133 82.0279 65.7738 76.062 73.2571 66.7888C73.2386 65.535 72.8017 64.4361 71.9694 63.3647C71.5255 62.7935 71.6326 61.7312 71.6368 60.8927ZM61.2748 13.5515C61.5298 13.0641 62.2242 12.8063 62.9682 12.2674C63.3577 14.242 63.7935 15.7112 65.3436 16.4571C64.737 17.653 63.8983 17.9118 61.8732 17.5353C61.8188 16.8886 61.61 16.212 62.5597 15.9354C62.6635 15.9053 62.7371 15.4736 62.6774 15.2718C62.5594 14.8718 60.7765 14.5048 61.2748 13.5515ZM61.0818 14.5645C61.2141 14.7176 61.6244 14.9871 61.707 15.3347C61.8395 15.8927 60.3006 17.1367 59.5542 17.0636C58.2023 16.9317 59.1298 14.5167 61.0818 14.5645ZM36.378 20.6142C37.3464 20.2551 38.0945 19.9777 38.8429 19.7004C38.9183 19.8398 38.9938 19.9792 39.0692 20.1188C36.6906 21.6612 37.3685 21.5265 36.378 20.6142Z" fill="url(#paint0_linear)"/>
<path d="M56.6873 52.302L50.0332 63.1052C51.5587 64.0956 53.0782 65.0869 54.5794 66.1009L61.3208 55.1561L56.6873 52.302Z" fill="#476870"/>
<path d="M57.0333 61.6541L52.8128 59.0547C52.3387 58.7626 51.7448 58.9038 51.4528 59.3779L36.5296 83.6063C36.2375 84.0804 36.3831 84.6935 36.8528 84.9663L41.0778 87.5851C41.5475 87.8577 42.1413 87.7166 42.4378 87.2618L57.3565 63.0142C57.6486 62.54 57.5074 61.946 57.0333 61.6541Z" fill="#627E87"/>
<path d="M56.2424 51.6047L54.9005 53.7835C54.6229 54.234 54.7165 54.7985 55.1333 55.1043C56.5158 56.152 57.9858 57.0573 59.5241 57.825C59.9802 58.0406 60.5458 57.8656 60.8085 57.4388L62.1552 55.2461C60.037 54.2873 58.0524 53.0652 56.2424 51.6047Z" fill="#627E87"/>
<path d="M96.7767 26.4599C93.469 12.5849 79.5417 4.00228 65.6667 7.31001C51.7917 10.6003 43.2091 24.5276 46.4993 38.4024C49.8072 52.295 63.7343 60.8776 77.6093 57.5699C91.5017 54.2796 100.084 40.3523 96.7767 26.4599ZM91.0567 44.3877C84.4425 55.1062 70.4001 58.4473 59.6817 51.85C48.9632 45.2527 45.6223 31.1933 52.2364 20.4749C58.8337 9.75652 72.8763 6.41546 83.5946 13.0297C94.3129 19.627 97.654 33.6694 91.0567 44.3877Z" fill="#476870"/>
<path opacity="0.3" d="M91.0577 44.3895C84.4517 55.1168 70.4062 58.4501 59.6789 51.8441C48.9668 45.2532 45.6335 31.2077 52.2244 20.4804C58.8304 9.75317 72.8759 6.41984 83.6032 13.0259C94.3153 19.632 97.6638 33.6774 91.0577 44.3895Z" fill="url(#paint1_linear)"/>
<g opacity="0.4">
<path opacity="0.4" d="M84.365 13.5526L50.5922 23.7438C50.1194 24.8852 49.7358 26.0453 49.459 27.222L87.2535 15.8173C86.3731 14.9919 85.396 14.2464 84.365 13.5526Z" fill="white"/>
<path opacity="0.4" d="M48.934 30.594C48.7348 33.075 48.9345 35.559 49.5309 37.9508L93.1118 24.7999C92.2902 22.4858 91.0821 20.3073 89.5348 18.3425L48.934 30.594Z" fill="white"/>
</g>
<defs>
<linearGradient id="paint0_linear" x1="0.515607" y1="41.1357" x2="80.6262" y2="41.1357" gradientUnits="userSpaceOnUse">
<stop offset="2.4e-07" stop-color="#15A0FF"/>
<stop offset="0.2298" stop-color="#19A4FF"/>
<stop offset="0.4796" stop-color="#26B0FF"/>
<stop offset="0.7389" stop-color="#3CC4FF"/>
<stop offset="1" stop-color="#5AE0FF"/>
</linearGradient>
<linearGradient id="paint1_linear" x1="48.8415" y1="32.4348" x2="94.4476" y2="32.4348" gradientUnits="userSpaceOnUse">
<stop offset="4.6e-07" stop-color="#1ACEB3"/>
<stop offset="0.4458" stop-color="#1ED2B7"/>
<stop offset="0.9298" stop-color="#2BDFC2"/>
<stop offset="1" stop-color="#2DE2C4"/>
</linearGradient>
</defs>
</svg>
