<svg width="94" height="100" viewBox="0 0 94 100" fill="none" xmlns="http://www.w3.org/2000/svg">
<path d="M86.9988 86.6666C86.8099 86.6666 86.6234 86.6765 86.4383 86.6918L86.4381 86.6898C85.0719 82.7936 81.3616 79.9998 76.9988 79.9998C74.5105 79.9998 72.4246 80.9087 70.6855 82.4123C70.5867 82.4976 70.4616 82.5461 70.331 82.5461C70.2006 82.5461 70.0753 82.4976 69.9765 82.4123C68.2377 80.9093 66.1532 79.9998 63.6654 79.9998C62.7938 79.9998 61.9481 80.1113 61.1419 80.3209H32.8556C32.0495 80.1113 31.2039 79.9998 30.332 79.9998C27.8445 79.9998 25.7598 80.9093 24.021 82.4123C23.9222 82.4976 23.797 82.5461 23.6664 82.5461C23.5358 82.5461 23.4107 82.4976 23.3119 82.4123C21.5729 80.9085 19.4868 79.9998 16.9986 79.9998C12.6358 79.9998 8.92558 82.7936 7.55939 86.6898V86.6918C7.37428 86.6763 7.18756 86.6666 6.99862 86.6666C3.36019 86.6666 0.402445 89.5813 0.33323 93.2032C0.261801 96.9409 3.39238 100 7.13041 100H86.867C90.6053 100 93.7356 96.9409 93.6642 93.2032C93.595 89.5815 90.6372 86.6666 86.9988 86.6666Z" fill="#ECF0F9"/>
<path d="M86.9995 86.6666C86.8105 86.6666 86.624 86.6765 86.4389 86.6918L86.4387 86.6898C85.0725 82.7936 81.3622 79.9998 76.9995 79.9998C76.195 79.9998 75.4331 80.0962 74.7109 80.2755C78.0246 81.0696 80.6971 83.5129 81.8109 86.6898L81.8111 86.6918C81.996 86.6763 82.1828 86.6666 82.3717 86.6666C86.0101 86.6666 88.9679 89.5813 89.0371 93.2032C89.1087 96.9409 85.9781 100 82.2401 100H86.8679C90.6061 100 93.7365 96.9409 93.6651 93.2034C93.5957 89.5815 90.6379 86.6666 86.9995 86.6666Z" fill="#D8E4F0"/>
<path d="M38.6667 94.8425H33.0301C31.9214 94.8425 30.9116 94.2795 30.3287 93.3364C29.746 92.3932 29.6939 91.2383 30.1896 90.2467L33.9836 82.6588C34.3562 81.9133 35.2625 81.6111 36.0082 81.9839C36.7536 82.3566 37.0556 83.263 36.683 84.0085L32.889 91.5964C32.8784 91.6179 32.8498 91.6751 32.8959 91.7497C32.9422 91.8246 33.0059 91.8246 33.0301 91.8246H38.6667C39.5001 91.8246 40.1758 92.5002 40.1758 93.3336C40.1758 94.1668 39.5003 94.8425 38.6667 94.8425Z" fill="#D8E4F0"/>
<path d="M38.6653 96.509C37.8319 96.509 37.1562 95.8334 37.1562 95V90C37.1562 89.1666 37.8319 88.4909 38.6653 88.4909C39.4987 88.4909 40.1744 89.1666 40.1744 90V95C40.1744 95.8334 39.4989 96.509 38.6653 96.509Z" fill="#D8E4F0"/>
<path d="M60.9679 94.8425H55.3313C54.4977 94.8425 53.8223 94.1668 53.8223 93.3334C53.8223 92.5 54.4977 91.8244 55.3313 91.8244H60.9679C60.9919 91.8244 61.0557 91.8244 61.1019 91.7495C61.148 91.6747 61.1197 91.6175 61.1088 91.596L57.315 84.0083C56.9422 83.2628 57.2444 82.3564 57.9899 81.9837C58.7358 81.6111 59.642 81.9131 60.0146 82.6586L63.8086 90.2465C64.3044 91.2384 64.2523 92.3934 63.6694 93.3364C63.0863 94.2795 62.0764 94.8425 60.9679 94.8425Z" fill="#D8E4F0"/>
<path d="M55.3313 96.509C54.4977 96.509 53.8223 95.8334 53.8223 95V90C53.8223 89.1666 54.4977 88.4909 55.3313 88.4909C56.1649 88.4909 56.8404 89.1666 56.8404 90V95C56.8404 95.8334 56.1649 96.509 55.3313 96.509Z" fill="#D8E4F0"/>
<path d="M45.4181 88.59L43.666 83.3334V82.3274H50.3326V83.3334L48.5805 88.59C48.0739 90.1095 45.9246 90.1095 45.4181 88.59Z" fill="#FFCB5B"/>
<path d="M34.8468 73.3334L32.6038 81.2103C32.3008 82.2747 33.1 83.3334 34.2068 83.3334H59.7917C60.8984 83.3334 61.6977 82.2747 61.3947 81.2103L59.1517 73.3334V72.3274H34.8468V73.3334Z" fill="#99B4CD"/>
<path d="M61.3941 81.2103L59.151 73.3334V72.3274H54.5293V73.3334L56.7724 81.2103C57.0754 82.2747 56.2762 83.3334 55.1693 83.3334H59.7911C60.8979 83.3334 61.6971 82.2747 61.3941 81.2103Z" fill="#7FA4C7"/>
<path d="M66.8606 56.8184L73.8818 68.2562C75.2451 70.4771 73.6469 73.3335 71.0409 73.3335H59.1508H34.8461H22.9558C20.3498 73.3335 18.7516 70.4773 20.115 68.2562L27.1361 56.8184H66.8606Z" fill="#D3E2EB"/>
<path d="M73.8833 68.2562L66.8621 56.8184H62.2344L69.2555 68.2562C70.6189 70.4771 69.0207 73.3333 66.4147 73.3333H71.0424C73.6487 73.3335 75.2466 70.4771 73.8833 68.2562Z" fill="#B0C4D8"/>
<path d="M59.1511 73.3334C64.9938 65.461 68.6654 54.0815 68.6654 41.4235C68.6654 22.033 60.0513 5.63862 48.2111 0.264178C47.4357 -0.0877337 46.5618 -0.0877337 45.7862 0.264178C33.9459 5.63862 25.332 22.033 25.332 41.4235C25.332 54.0815 29.0037 65.4612 34.8463 73.3334H59.1511Z" fill="#ECF0F9"/>
<path d="M48.2119 0.263995C47.4365 -0.0879168 46.5626 -0.0879168 45.787 0.263995C45.4165 0.432204 45.0493 0.611077 44.6855 0.800413C55.9548 6.66701 64.0383 22.6392 64.0383 41.4234C64.0383 54.0813 60.3666 65.461 54.524 73.3332H59.1517C64.9944 65.4608 68.666 54.0813 68.666 41.4234C68.666 22.0328 60.0519 5.63844 48.2119 0.263995Z" fill="#D8E4F0"/>
<path d="M50.5561 49.4957C57.6549 47.537 61.8216 40.1944 59.8629 33.0957C57.9041 25.9969 50.5615 21.8302 43.4628 23.7889C36.364 25.7477 32.1973 33.0903 34.1561 40.189C36.1148 47.2878 43.4574 51.4545 50.5561 49.4957Z" fill="#99B4CD"/>
<path d="M53.5731 37.8897C54.2579 34.2704 51.8791 30.7812 48.2598 30.0964C44.6405 29.4116 41.1514 31.7904 40.4666 35.4097C39.7817 39.029 42.1606 42.5181 45.7798 43.2029C49.3991 43.8878 52.8883 41.5089 53.5731 37.8897Z" fill="#4C9CD6"/>
<path d="M48.2119 0.263995C47.4364 -0.0879168 46.5626 -0.0879168 45.7869 0.263995C39.5746 3.08391 34.2515 8.93844 30.5938 16.6666H63.405C59.7471 8.93844 54.4241 3.08391 48.2119 0.263995Z" fill="#F04D4E"/>
<path d="M45.0306 0.626168C44.9153 0.683713 44.8002 0.741258 44.6855 0.800816C50.425 3.78894 55.3371 9.39941 58.7765 16.6666H63.4041C59.7461 8.93844 54.4232 3.08371 48.2109 0.263995C47.4354 -0.0879168 46.5616 -0.0879168 45.786 0.263995C45.5962 0.350111 45.4073 0.439246 45.2193 0.530997C45.1562 0.561983 45.0936 0.594779 45.0306 0.626168Z" fill="#DB343F"/>
<path d="M34.8464 73.3334H59.1511C60.6402 71.327 61.9871 69.0918 63.1694 66.6668H30.8281C32.0102 69.0918 33.3573 71.327 34.8464 73.3334Z" fill="#F04D4E"/>
<path d="M58.5417 66.6666C57.3597 69.0916 56.0126 71.327 54.5234 73.3332H59.1512C60.6403 71.3268 61.9874 69.0916 63.1695 66.6666H58.5417Z" fill="#DB343F"/>
<path d="M50.3328 73.3334V60C50.3328 58.159 48.8405 56.6666 46.9994 56.6666C45.1584 56.6666 43.666 58.159 43.666 60V73.3334H50.3328Z" fill="#D3E2EB"/>
<path d="M46.9994 30C46.1857 30 45.4065 30.1463 44.6855 30.4131C47.2268 31.3537 49.0383 33.7984 49.0383 36.6666C49.0383 39.5348 47.2266 41.9795 44.6855 42.9201C45.4065 43.1869 46.1857 43.3332 46.9994 43.3332C50.6813 43.3332 53.666 40.3485 53.666 36.6666C53.666 32.9847 50.6813 30 46.9994 30Z" fill="#3689C9"/>
<path d="M46.9978 23.3334C46.2039 23.3334 45.4276 23.4069 44.6719 23.5399C50.9262 24.6409 55.6793 30.0968 55.6793 36.6668C55.6793 43.2367 50.9262 48.6928 44.6719 49.7938C45.4276 49.9268 46.2039 50.0002 46.9978 50.0002C54.3616 50.0002 60.3312 44.0306 60.3312 36.6668C60.3312 29.3029 54.3616 23.3334 46.9978 23.3334Z" fill="#87ABCD"/>
<path d="M28.2281 80.3211H32.8558C32.0498 80.1115 31.2041 80 30.3323 80C29.5252 80 28.7613 80.0972 28.0371 80.2779C28.1003 80.293 28.1651 80.3048 28.2281 80.3211Z" fill="#D8E4F0"/>
</svg>
