<svg width="100" height="100" viewBox="0 0 100 100" fill="none" xmlns="http://www.w3.org/2000/svg">
<path d="M22.7617 48.9103L31.7461 64.4717C32.2641 65.3689 33.1173 66.0235 34.118 66.2917C35.1187 66.5598 36.1849 66.4194 37.082 65.9014C37.9792 65.3834 38.6339 64.5303 38.902 63.5296C39.1702 62.5289 39.0298 61.4627 38.5119 60.5655L39.0633 56.25" fill="#84483A"/>
<path d="M77.2383 48.9103L68.2539 64.4717C67.7359 65.3689 66.8827 66.0235 65.882 66.2917C64.8814 66.5598 63.8152 66.4194 62.918 65.9014C62.0208 65.3834 61.3661 64.5303 61.098 63.5296C60.8298 62.5289 60.9702 61.4627 61.4881 60.5655L67.3475 50.4166" fill="#B37555"/>
<path d="M88.2801 28.2222L90.9633 32.6195C91.6943 33.8176 92.089 35.1905 92.1061 36.5939C92.1231 37.9973 91.7617 39.3794 91.06 40.5948L87.9101 46.0506L78.0195 47.5572L73.332 55.6761L46.2695 40.0511L57.3937 20.7812C58.07 19.6101 58.9915 18.5991 60.0952 17.8176C61.199 17.0361 62.4587 16.5027 63.788 16.2539L66.6295 15.7227L72.0983 6.25L93.7489 18.75L88.2801 28.2222Z" fill="#B37555"/>
<path d="M71.875 54.8342V49.2188C71.8729 47.3546 71.1315 45.5674 69.8133 44.2492C68.4951 42.931 66.7079 42.1896 64.8438 42.1875C64.57 42.1876 64.2964 42.2033 64.0244 42.2344C63.918 41.2239 63.594 40.2484 63.0746 39.3751C62.5552 38.5018 61.8528 37.7515 61.0157 37.1756C60.1785 36.5998 59.2266 36.2121 58.2253 36.0394C57.224 35.8667 56.1972 35.9129 55.2155 36.175C54.6889 35.3198 53.9856 34.5871 53.1527 34.0261C52.3197 33.465 51.3765 33.0885 50.3861 32.9219L46.2695 40.0517L71.875 54.8342Z" fill="#AA6440"/>
<path d="M71.8756 49.7272L67.3489 50.4166L61.4895 60.5653C61.229 61.0097 61.0589 61.5013 60.9891 62.0117C60.9193 62.5221 60.9512 63.0413 61.0829 63.5393C61.2146 64.0374 61.4434 64.5044 61.7564 64.9137C62.0693 65.3229 62.4601 65.6662 62.9062 65.9237C63.3523 66.1813 63.845 66.3481 64.3559 66.4145C64.8667 66.4809 65.3857 66.4456 65.8828 66.3106C66.38 66.1757 66.8455 65.9437 67.2527 65.6281C67.6598 65.3124 68.0005 64.9194 68.2551 64.4715L71.8756 58.2012V49.7272Z" fill="#AA6440"/>
<path d="M88.2817 28.2222L90.9648 32.6195C91.6958 33.8176 92.0906 35.1905 92.1076 36.5939C92.1246 37.9973 91.7633 39.3793 91.0615 40.5948L81.271 57.5525C80.9605 58.0908 80.4489 58.4837 79.8487 58.6449C79.2485 58.806 78.6088 58.7222 78.0704 58.4118H78.0693C77.4473 58.0531 76.9021 57.5754 76.4648 57.0059C76.0275 56.4364 75.7066 55.7864 75.5206 55.0928C75.3346 54.3993 75.287 53.676 75.3806 52.9641C75.4743 52.2522 75.7072 51.5657 76.0662 50.9439L79.5832 44.8522" fill="#B37555"/>
<path d="M79.5839 44.8508L76.0669 50.9425C75.5527 51.837 75.303 52.859 75.3467 53.8898C75.3904 54.9206 75.7256 55.9178 76.3136 56.7656L82.2909 46.4128C82.4981 46.0539 82.5543 45.6274 82.447 45.2271C82.3398 44.8269 82.0779 44.4856 81.719 44.2784C81.3601 44.0712 80.9336 44.015 80.5333 44.1223C80.133 44.2295 79.7917 44.4914 79.5845 44.8503L79.5839 44.8508Z" fill="#AA6440"/>
<path d="M11.7188 28.2222L9.03563 32.6195C8.30462 33.8176 7.90986 35.1905 7.89284 36.5939C7.87582 37.9973 8.23717 39.3794 8.93891 40.5948L12.0888 46.0506L21.9794 47.5572L26.6669 55.6761L34.375 65.625L43.75 75L53.7305 40.0511L42.6052 20.7812C41.929 19.6101 41.0074 18.5991 39.9037 17.8176C38.7999 17.0361 37.5402 16.5027 36.2109 16.2539L33.3694 15.7227L27.9006 6.25L6.25 18.75L11.7188 28.2222Z" fill="#8C5A4B"/>
<path d="M53.7305 40.0511L49.5645 32.8353C49.4487 32.8297 49.3359 32.8125 49.2187 32.8125C48.015 32.8132 46.8315 33.1227 45.7816 33.7115C44.7317 34.3003 43.8504 35.1487 43.222 36.1755C42.1804 35.8974 41.0888 35.8625 40.0316 36.0735C38.9744 36.2845 37.9798 36.7357 37.1247 37.3923C36.2696 38.0488 35.5769 38.8932 35.1001 39.8601C34.6234 40.8271 34.3753 41.8907 34.375 42.9688V50.325C33.612 50.1086 32.8227 49.9993 32.0297 50C30.58 50.0019 29.1903 50.5788 28.1654 51.604C27.1405 52.6292 26.564 54.0191 26.5625 55.4688V55.4948L26.6672 55.6759L34.375 65.625L43.75 75L53.7305 40.0511Z" fill="#84483A"/>
<path d="M38.5111 60.5653L39.0625 56.25L28.3694 51.4355C27.8026 51.9438 27.3489 52.5655 27.0377 53.2603C26.7264 53.955 26.5645 54.7074 26.5625 55.4688V55.4949L31.7453 64.4716C31.9999 64.9194 32.3406 65.3124 32.7478 65.6281C33.1549 65.9437 33.6204 66.1757 34.1176 66.3107C34.6148 66.4456 35.1337 66.4809 35.6446 66.4145C36.1554 66.3481 36.6481 66.1813 37.0942 65.9238C37.5404 65.6662 37.9312 65.3229 38.2441 64.9137C38.557 64.5045 38.7859 64.0374 38.9176 63.5393C39.0492 63.0413 39.0811 62.5221 39.0113 62.0117C38.9415 61.5013 38.7715 61.0097 38.5109 60.5653H38.5111Z" fill="#84483A"/>
<path d="M11.7191 28.2222L9.03594 32.6195C8.30493 33.8176 7.91017 35.1905 7.89315 36.5939C7.87613 37.9973 8.23748 39.3793 8.93922 40.5948L18.7297 57.5525C19.0402 58.0908 19.5519 58.4837 20.1521 58.6449C20.7523 58.806 21.3919 58.7222 21.9303 58.4118H21.9314C22.5534 58.0531 23.0986 57.5754 23.536 57.0059C23.9733 56.4364 24.2941 55.7864 24.4801 55.0928C24.6661 54.3993 24.7137 53.676 24.6201 52.9641C24.5265 52.2522 24.2935 51.5657 23.9345 50.9439L20.4175 44.8508" fill="#8C5A4B"/>
<path d="M17.7113 46.4133L23.688 56.7657C24.2759 55.9178 24.6112 54.9204 24.6547 53.8895C24.6983 52.8586 24.4484 51.8366 23.9341 50.9421L20.4177 44.8508C20.3151 44.6731 20.1785 44.5173 20.0157 44.3924C19.8529 44.2675 19.6671 44.1759 19.4689 44.1228C19.2707 44.0697 19.064 44.0561 18.8606 44.0829C18.6571 44.1097 18.4609 44.1763 18.2832 44.2788C18.1055 44.3814 17.9498 44.518 17.8249 44.6808C17.6999 44.8436 17.6083 45.0294 17.5552 45.2276C17.5021 45.4258 17.4885 45.6325 17.5153 45.836C17.5421 46.0394 17.6087 46.2356 17.7113 46.4133Z" fill="#84483A"/>
<path d="M38.2812 84.375L33.7591 81.9083C32.5269 81.2362 31.4985 80.2446 30.7821 79.0377C30.0656 77.8308 29.6875 76.4532 29.6875 75.0497V68.75L37.5 62.5V57.8125H68.75V75.375C68.75 76.7274 68.4574 78.0637 67.8923 79.2924C67.3271 80.521 66.5029 81.6129 65.4761 82.493L63.2812 84.375V93.75H38.2812V84.375Z" fill="#EFD0B5"/>
<path d="M60.9375 60.9375V49.2188C60.9375 48.1827 61.349 47.1892 62.0816 46.4566C62.8142 45.7241 63.8077 45.3125 64.8438 45.3125C65.8798 45.3125 66.8733 45.7241 67.6059 46.4566C68.3385 47.1892 68.75 48.1827 68.75 49.2188V60.9375" fill="#EFD0B5"/>
<path d="M68.75 49.2187C68.7512 48.5698 68.5904 47.9308 68.2821 47.3598C67.9739 46.7887 67.528 46.3036 66.9849 45.9484C66.4418 45.5932 65.8186 45.3792 65.1719 45.3257C64.5252 45.2723 63.8753 45.3811 63.2812 45.6423C63.9775 45.9458 64.5701 46.4458 64.9864 47.0811C65.4027 47.7163 65.6246 48.4592 65.625 49.2187V60.9375C65.625 61.3519 65.7896 61.7493 66.0826 62.0423C66.3757 62.3354 66.7731 62.5 67.1875 62.5C67.6019 62.5 67.9993 62.3354 68.2924 62.0423C68.5854 61.7493 68.75 61.3519 68.75 60.9375V49.2187Z" fill="#EBC3A0"/>
<path d="M53.125 60.9375V42.9688C53.125 41.9327 53.5365 40.9392 54.2691 40.2066C55.0017 39.4741 55.9952 39.0625 57.0312 39.0625C58.0673 39.0625 59.0608 39.4741 59.7934 40.2066C60.526 40.9392 60.9375 41.9327 60.9375 42.9688V60.9375" fill="#EFD0B5"/>
<path d="M57.0312 39.0625C56.4932 39.063 55.9611 39.1754 55.4688 39.3923C56.165 39.6958 56.7576 40.1958 57.1739 40.831C57.5903 41.4663 57.8122 42.2092 57.8125 42.9688V60.9375C57.8125 61.3519 57.9771 61.7493 58.2701 62.0424C58.5632 62.3354 58.9606 62.5 59.375 62.5C59.7894 62.5 60.1868 62.3354 60.4799 62.0424C60.7729 61.7493 60.9375 61.3519 60.9375 60.9375V42.9688C60.9375 41.9327 60.526 40.9392 59.7934 40.2066C59.0608 39.4741 58.0673 39.0625 57.0312 39.0625Z" fill="#EBC3A0"/>
<path d="M45.3125 60.9375V39.8438C45.3125 38.8077 45.7241 37.8142 46.4566 37.0816C47.1892 36.3491 48.1827 35.9375 49.2188 35.9375C50.2548 35.9375 51.2483 36.3491 51.9809 37.0816C52.7135 37.8142 53.125 38.8077 53.125 39.8438V60.9375" fill="#EFD0B5"/>
<path d="M49.2188 35.9375C48.6807 35.938 48.1486 36.0504 47.6562 36.2673C48.3525 36.5708 48.9451 37.0708 49.3614 37.706C49.7778 38.3413 49.9997 39.0842 50 39.8438V60.9375C50 61.3519 50.1646 61.7493 50.4576 62.0424C50.7507 62.3354 51.1481 62.5 51.5625 62.5C51.9769 62.5 52.3743 62.3354 52.6674 62.0424C52.9604 61.7493 53.125 61.3519 53.125 60.9375V39.8438C53.125 38.8077 52.7135 37.8142 51.9809 37.0816C51.2483 36.3491 50.2548 35.9375 49.2188 35.9375Z" fill="#EBC3A0"/>
<path d="M37.5 60.9375V42.9688C37.5 41.9327 37.9116 40.9392 38.6441 40.2066C39.3767 39.4741 40.3702 39.0625 41.4062 39.0625C42.4423 39.0625 43.4358 39.4741 44.1684 40.2066C44.9009 40.9392 45.3125 41.9327 45.3125 42.9688V60.9375" fill="#EFD0B5"/>
<path d="M41.4062 39.0625C40.8682 39.063 40.3361 39.1754 39.8438 39.3923C40.54 39.6958 41.1326 40.1958 41.5489 40.831C41.9653 41.4663 42.1872 42.2092 42.1875 42.9688V60.9375C42.1875 61.3519 42.3521 61.7493 42.6451 62.0424C42.9382 62.3354 43.3356 62.5 43.75 62.5C44.1644 62.5 44.5618 62.3354 44.8549 62.0424C45.1479 61.7493 45.3125 61.3519 45.3125 60.9375V42.9688C45.3125 41.9327 44.9009 40.9392 44.1684 40.2066C43.4358 39.4741 42.4423 39.0625 41.4062 39.0625Z" fill="#EBC3A0"/>
<path d="M38.2812 84.375L33.7591 81.9083C32.5269 81.2362 31.4985 80.2446 30.7821 79.0377C30.0656 77.8308 29.6875 76.4532 29.6875 75.0497V55.4688C29.6875 54.8474 29.9343 54.2514 30.3735 53.8119C30.8128 53.3724 31.4086 53.1253 32.03 53.125H32.0312C32.7493 53.1246 33.4604 53.2657 34.1238 53.5403C34.7873 53.8148 35.3902 54.2173 35.8981 54.7249C36.4059 55.2325 36.8088 55.8352 37.0837 56.4986C37.3585 57.1619 37.5 57.8729 37.5 58.5909V65.625" fill="#EFD0B5"/>
<path d="M34.375 53.6705V65.625C34.375 66.0394 34.5396 66.4368 34.8326 66.7299C35.1257 67.0229 35.5231 67.1875 35.9375 67.1875C36.3519 67.1875 36.7493 67.0229 37.0424 66.7299C37.3354 66.4368 37.5 66.0394 37.5 65.625V58.5909C37.4981 57.5591 37.2035 56.549 36.6503 55.678C36.0971 54.807 35.3081 54.1108 34.375 53.6705Z" fill="#EBC3A0"/>
</svg>
