<svg width="78" height="100" viewBox="0 0 78 100" fill="none" xmlns="http://www.w3.org/2000/svg">
<path d="M58.0059 58.0002V78.0272C58.0059 80.9536 60.3781 83.3256 63.3043 83.3256C66.2307 83.3256 68.6027 80.9534 68.6027 78.0272V58.0002H58.0059Z" fill="#FE646F"/>
<path d="M62.2006 78.0272V58.1956H58.0078V78.0272C58.0078 80.9536 60.3801 83.3256 63.3063 83.3256C64.051 83.3256 64.7596 83.1713 65.4027 82.8938C63.5193 82.0815 62.2006 80.2086 62.2006 78.0272Z" fill="#FD4755"/>
<path d="M77.3844 44.5709H49.2266V50.7698C49.2266 54.8709 52.5512 58.1955 56.6523 58.1955H69.9584C74.0596 58.1955 77.3842 54.8709 77.3842 50.7698V44.5709H77.3844Z" fill="#A2C7F8"/>
<path d="M55.56 50.7698V44.5709H49.2266V50.7698C49.2266 54.8709 52.5512 58.1955 56.6523 58.1955H62.9857C58.8846 58.1955 55.56 54.8709 55.56 50.7698Z" fill="#8DB3DF"/>
<path d="M57.5547 38.1635C58.3639 38.1635 59.0195 37.5078 59.0195 36.6986V26.4043H56.0898V36.6986C56.0898 37.5078 56.7455 38.1635 57.5547 38.1635Z" fill="#FFBD86"/>
<path d="M63.3047 38.1635C64.1139 38.1635 64.7695 37.5078 64.7695 36.6986V26.4043H61.8398V36.6986C61.8398 37.5078 62.4955 38.1635 63.3047 38.1635Z" fill="#FFBD86"/>
<path d="M69.0527 38.1635C69.8619 38.1635 70.5176 37.5078 70.5176 36.6986V26.4043H67.5879V36.6986C67.5879 37.5078 68.2436 38.1635 69.0527 38.1635Z" fill="#FFBD86"/>
<path d="M63.3047 79.1231C62.4955 79.1231 61.8398 78.4674 61.8398 77.6582V74.2635C61.8398 73.4543 62.4955 72.7986 63.3047 72.7986C64.1139 72.7986 64.7695 73.4543 64.7695 74.2635V77.6582C64.7695 78.4674 64.1139 79.1231 63.3047 79.1231Z" fill="#647FA0"/>
<path d="M31.8357 46.749C32.382 46.749 32.9127 46.8151 33.4221 46.9363V22.076H27.9279C26.8135 22.076 25.9102 22.9793 25.9102 24.0938V30.4293C25.9102 31.2914 25.3617 32.0565 24.5463 32.3363C23.6633 32.6395 22.8055 32.9961 21.9762 33.4024C21.2008 33.7822 20.2707 33.6305 19.6602 33.0197L15.1791 28.5387C14.391 27.7506 13.1135 27.7506 12.3254 28.5387L6.79883 34.0652C6.01094 34.8533 6.01094 36.1309 6.79883 36.919L11.2799 41.4C11.8904 42.0106 12.0422 42.9406 11.6623 43.716C11.2561 44.5453 10.8994 45.4033 10.5963 46.2863C10.3164 47.1018 9.55137 47.6502 8.68926 47.6502H2.35371C1.23926 47.6502 0.335938 48.5535 0.335938 49.668V57.4838C0.335938 58.5983 1.23945 59.5016 2.35371 59.5016H8.68926C9.55137 59.5016 10.3164 60.05 10.5963 60.8654C10.8994 61.7485 11.2561 62.6063 11.6623 63.4356C12.0422 64.211 11.8902 65.141 11.2797 65.7516L6.79863 70.2324C6.01074 71.0203 6.01074 72.2981 6.79863 73.0861L12.3252 78.6127C13.1133 79.4008 14.3908 79.4008 15.1789 78.6127L19.66 74.1317C20.2705 73.5211 21.2006 73.3692 21.976 73.749C22.8053 74.1553 23.6633 74.5119 24.5461 74.8151C25.3615 75.0949 25.91 75.86 25.91 76.7221V83.0576C25.91 84.1721 26.8133 85.0754 27.9277 85.0754H33.4219V60.2151C32.9127 60.3363 32.382 60.4024 31.8355 60.4024C28.0652 60.4024 25.0088 57.3459 25.0088 53.5756C25.009 49.8053 28.0654 46.749 31.8357 46.749Z" fill="#8DB3DF"/>
<path d="M49.1815 18.3904H33.5902L33.2051 18.7391V75.1863L33.6205 75.3817H49.1957L49.5977 75.1863V18.7391L49.1815 18.3904Z" fill="#FED402"/>
<path d="M48.791 84.0777H33.9633L33.2051 84.273V91.8037C33.2051 96.3305 36.8746 100 41.4014 100C45.9281 100 49.5977 96.3303 49.5977 91.8037V84.273L48.791 84.0777Z" fill="#FE646F"/>
<path d="M31.8354 46.7491C32.3816 46.7491 32.9123 46.8151 33.4217 46.9364V39.2629C32.9006 39.2059 32.3717 39.1741 31.8354 39.1741C23.8814 39.1741 17.4336 45.6219 17.4336 53.5758C17.4336 61.5298 23.8814 67.9776 31.8354 67.9776C32.3717 67.9776 32.9004 67.946 33.4217 67.8887V60.2153C32.9125 60.3366 32.3818 60.4026 31.8354 60.4026C28.065 60.4026 25.0086 57.3462 25.0086 53.5758C25.0086 49.8053 28.065 46.7491 31.8354 46.7491Z" fill="#647FA0"/>
<path d="M33.3998 58.7512C33.2945 58.7527 33.1879 58.7646 33.0812 58.79C32.6705 58.8879 32.2512 58.9375 31.8344 58.9375C28.8779 58.9375 26.4727 56.5322 26.4727 53.5758C26.4727 50.6191 28.8779 48.2139 31.8344 48.2139C32.2512 48.2139 32.6705 48.2635 33.0812 48.3613C33.1879 48.3865 33.2945 48.3984 33.3998 48.4V45.4365C32.8824 45.3371 32.3576 45.2842 31.8344 45.2842C27.2625 45.2842 23.543 49.0037 23.543 53.5758C23.543 58.1476 27.2625 61.8672 31.8344 61.8672C32.3576 61.8672 32.8822 61.8142 33.3998 61.7148V58.7512Z" fill="#5E6F90"/>
<path d="M39.9355 18.3904H42.8652V75.3817H39.9355V18.3904Z" fill="#FB8801"/>
<path d="M39.4617 91.8037V18.7391H33.2031V91.8037C33.2031 96.3305 36.8726 100 41.3994 100C42.5078 100 43.5642 99.7787 44.5287 99.3799C41.5547 98.1502 39.4617 95.2219 39.4617 91.8037Z" fill="#FAC600"/>
<path d="M33.2031 84.273V91.8037C33.2031 96.3304 36.8727 100 41.3994 100C42.5078 100 43.5643 99.7787 44.5287 99.3799C41.5549 98.1502 39.4617 95.2218 39.4617 91.8035V84.2728H33.2031V84.273Z" fill="#FD4755"/>
<path d="M49.5959 18.7391C49.5959 18.2754 49.5035 17.8164 49.3238 17.3889L42.2611 0.572668C41.9404 -0.190808 40.8588 -0.190808 40.5381 0.572668L33.4752 17.3889C33.2957 17.8164 33.2031 18.2754 33.2031 18.7391H49.5959Z" fill="#FED2A4"/>
<path d="M44.5289 5.97208L42.2611 0.572668C41.9404 -0.190808 40.8588 -0.190808 40.5381 0.572668L33.4752 17.3889C33.2957 17.8164 33.2031 18.2754 33.2031 18.7391H39.4617C39.4617 18.2754 39.5541 17.8164 39.7338 17.3889L44.5289 5.97208Z" fill="#FFBD86"/>
<path d="M40.5381 0.572668L36.6426 9.84747H46.1564L42.2611 0.572668C41.9404 -0.190808 40.8586 -0.190808 40.5381 0.572668Z" fill="#647FA0"/>
<path d="M33.2031 75.1864H49.5957V84.2731H33.2031V75.1864Z" fill="#0593FC"/>
<path d="M33.2031 75.1864H39.4617V84.2731H33.2031V75.1864Z" fill="#0182FC"/>
<path d="M58.772 2.76871C57.7413 5.79313 56.5568 6.9775 53.5326 8.00817C53.0152 8.18453 53.0152 8.91344 53.5326 9.08961C56.5568 10.1203 57.7413 11.3048 58.772 14.3291C58.9484 14.8464 59.6773 14.8464 59.8535 14.3291C60.8841 11.3047 62.0687 10.1203 65.0929 9.08961C65.6103 8.91324 65.6103 8.18434 65.0929 8.00817C62.0687 6.9775 60.8841 5.79293 59.8535 2.76871C59.6771 2.25133 58.9484 2.25133 58.772 2.76871Z" fill="#FED402"/>
<path d="M23.4869 7.13904L15.31 2.41795C15.0078 2.24354 14.6355 2.24354 14.3334 2.41795L6.15625 7.13904C5.8541 7.31346 5.66797 7.63592 5.66797 7.98475V17.4267C5.66797 17.7756 5.8541 18.098 6.15625 18.2724L14.3334 22.9935C14.6355 23.1679 15.0078 23.1679 15.31 22.9935L23.4871 18.2724C23.7893 18.098 23.9754 17.7756 23.9754 17.4267V7.98475C23.9752 7.63592 23.7891 7.31346 23.4869 7.13904ZM14.8217 16.818C12.5506 16.818 10.7096 14.9769 10.7096 12.7058C10.7096 10.4347 12.5506 8.59373 14.8217 8.59373C17.0928 8.59373 18.9338 10.4347 18.9338 12.7058C18.9338 14.9769 17.0928 16.818 14.8217 16.818Z" fill="#8DB3DF"/>
<path d="M14.8211 18.2828C11.7461 18.2828 9.24414 15.7808 9.24414 12.7056C9.24414 9.63062 11.7461 7.12866 14.8211 7.12866C17.8963 7.12866 20.3982 9.63062 20.3982 12.7056C20.3982 15.781 17.8963 18.2828 14.8211 18.2828ZM14.8211 10.0585C13.3613 10.0585 12.1738 11.246 12.1738 12.7058C12.1738 14.1656 13.3613 15.3533 14.8211 15.3533C16.2809 15.3533 17.4685 14.1656 17.4685 12.7058C17.4685 11.246 16.2809 10.0585 14.8211 10.0585Z" fill="#5E6F90"/>
<path d="M76.1986 15.0369H74.2535V13.092C74.2535 12.2828 73.5978 11.6271 72.7887 11.6271C71.9795 11.6271 71.3238 12.2828 71.3238 13.092V15.0369H69.3789C68.5697 15.0369 67.9141 15.6926 67.9141 16.5017C67.9141 17.3109 68.5697 17.9666 69.3789 17.9666H71.3238V19.9115C71.3238 20.7207 71.9795 21.3764 72.7887 21.3764C73.5978 21.3764 74.2535 20.7207 74.2535 19.9115V17.9666H76.1986C77.0078 17.9666 77.6635 17.3109 77.6635 16.5017C77.6635 15.6926 77.0078 15.0369 76.1986 15.0369Z" fill="#FED402"/>
</svg>
