<?xml version="1.0" standalone="no"?>
<!DOCTYPE svg PUBLIC "-//W3C//DTD SVG 20010904//EN"
 "http://www.w3.org/TR/2001/REC-SVG-20010904/DTD/svg10.dtd">
<svg version="1.0" xmlns="http://www.w3.org/2000/svg"
 width="1142.000000pt" height="1250.000000pt" viewBox="0 0 1142.000000 1250.000000"
 preserveAspectRatio="xMidYMid meet">
<metadata>
Created by potrace 1.16, written by Peter Selinger 2001-2019
</metadata>
<g transform="translate(0.000000,1250.000000) scale(0.100000,-0.100000)"
fill="#000000" stroke="none">
<path d="M5450 12443 c-1151 -60 -2173 -429 -3060 -1104 -730 -555 -1314
-1245 -1705 -2014 -303 -597 -478 -1143 -554 -1725 -35 -264 -42 -383 -48
-740 -11 -698 44 -1134 217 -1705 212 -701 617 -1469 1049 -1989 99 -118 486
-509 550 -555 24 -17 50 -31 57 -31 16 0 139 169 344 472 l153 226 -129 149
c-286 327 -387 457 -541 688 -448 671 -705 1381 -793 2190 -18 163 -24 583
-11 760 87 1181 576 2251 1416 3090 789 788 1749 1234 2900 1347 190 19 682
16 875 -5 992 -108 1838 -472 2586 -1112 1048 -897 1674 -2245 1674 -3605 0
-1143 -414 -2255 -1170 -3140 -145 -170 -443 -458 -625 -604 -591 -473 -1293
-800 -2030 -945 -546 -107 -1225 -109 -1770 -5 -324 62 -551 130 -946 280
-136 52 -250 94 -254 94 -4 0 -149 -59 -323 -131 -371 -154 -639 -280 -649
-305 -14 -38 139 -138 457 -298 655 -331 1304 -544 1835 -601 105 -12 287 -18
610 -22 903 -11 1208 27 1835 228 408 131 374 122 495 122 94 0 130 -5 245
-36 562 -149 1830 -660 2932 -1181 290 -137 338 -157 338 -138 0 6 -105 142
-233 304 -641 808 -909 1166 -1136 1516 -207 321 -371 637 -371 715 0 35 70
132 185 257 546 591 990 1371 1273 2240 65 200 141 492 167 638 75 436 85
1305 19 1847 -40 337 -179 840 -340 1233 -715 1744 -2222 3053 -3984 3457
-489 112 -1060 164 -1540 138z"/>
<path d="M5545 11074 c-318 -17 -631 -61 -855 -120 -1026 -271 -1916 -912
-2515 -1809 -139 -208 -214 -340 -316 -549 -133 -277 -236 -555 -313 -846 -82
-313 -89 -401 -83 -1091 6 -670 7 -684 121 -1071 177 -598 425 -1084 789
-1541 44 -56 147 -180 229 -275 81 -96 148 -178 148 -183 0 -18 -113 -234
-177 -338 -229 -372 -698 -1017 -1023 -1409 -84 -101 -150 -185 -147 -188 3
-3 216 87 474 199 1112 486 1596 678 2012 797 115 33 217 60 228 60 10 0 82
-23 158 -51 351 -129 695 -211 998 -239 408 -37 968 -14 1342 55 396 73 879
260 1285 495 615 357 1151 879 1522 1480 595 965 796 2106 562 3200 -248 1158
-998 2202 -2024 2818 -516 309 -1149 527 -1710 588 -133 14 -568 25 -705 18z
m765 -869 c446 -57 876 -206 1268 -439 459 -273 874 -690 1165 -1169 199 -326
344 -698 422 -1082 99 -489 109 -931 30 -1402 -185 -1097 -858 -2023 -1824
-2509 -378 -190 -763 -300 -1241 -356 -169 -19 -639 -16 -805 5 -474 62 -846
176 -1230 376 -326 169 -590 366 -850 633 -675 692 -988 1529 -962 2568 10
389 30 553 98 815 238 924 746 1621 1524 2090 99 60 376 199 508 254 346 147
602 202 1062 231 210 13 687 5 835 -15z"/>
<path d="M3380 6665 l0 -1105 145 0 145 0 0 394 0 394 105 87 c126 103 243
185 264 185 9 0 25 -13 36 -28 102 -139 281 -395 480 -684 l238 -348 194 0
c135 0 192 3 188 11 -4 6 -218 298 -476 650 l-468 639 427 425 c236 233 440
434 455 445 15 12 27 26 27 31 0 5 -81 9 -192 9 l-193 1 -542 -548 -543 -548
0 548 0 547 -145 0 -145 0 0 -1105z"/>
<path d="M5446 7318 c-3 -249 -9 -747 -12 -1105 l-7 -653 692 0 692 0 -3 123
-3 122 -540 11 c-297 7 -541 12 -542 13 -2 1 -3 438 -3 971 l0 970 -134 0
-133 0 -7 -452z"/>
<path d="M7160 6665 l0 -1105 680 0 680 0 0 125 0 125 -540 0 -540 0 0 980 0
980 -140 0 -140 0 0 -1105z"/>
</g>
</svg>
